%TF.GenerationSoftware,KiCad,Pcbnew,(5.1.6)-1*%
%TF.CreationDate,2021-03-15T13:43:59-03:00*%
%TF.ProjectId,rasp_hat,72617370-5f68-4617-942e-6b696361645f,Version 1*%
%TF.SameCoordinates,Original*%
%TF.FileFunction,Soldermask,Top*%
%TF.FilePolarity,Negative*%
%FSLAX46Y46*%
G04 Gerber Fmt 4.6, Leading zero omitted, Abs format (unit mm)*
G04 Created by KiCad (PCBNEW (5.1.6)-1) date 2021-03-15 13:43:59*
%MOMM*%
%LPD*%
G01*
G04 APERTURE LIST*
%ADD10O,1.800000X1.800000*%
%ADD11R,1.800000X1.800000*%
%ADD12O,1.624000X1.624000*%
%ADD13R,1.600000X1.600000*%
%ADD14C,1.600000*%
G04 APERTURE END LIST*
D10*
%TO.C,J1*%
X103632000Y-82550000D03*
X103632000Y-85090000D03*
X101092000Y-82550000D03*
X101092000Y-85090000D03*
X98552000Y-82550000D03*
X98552000Y-85090000D03*
X96012000Y-82550000D03*
X96012000Y-85090000D03*
X93472000Y-82550000D03*
X93472000Y-85090000D03*
X90932000Y-82550000D03*
X90932000Y-85090000D03*
X88392000Y-82550000D03*
X88392000Y-85090000D03*
X85852000Y-82550000D03*
D11*
X85852000Y-85090000D03*
%TD*%
%TO.C,D1*%
G36*
G01*
X97500600Y-93806538D02*
X97500600Y-94763062D01*
G75*
G02*
X97228862Y-95034800I-271738J0D01*
G01*
X96522338Y-95034800D01*
G75*
G02*
X96250600Y-94763062I0J271738D01*
G01*
X96250600Y-93806538D01*
G75*
G02*
X96522338Y-93534800I271738J0D01*
G01*
X97228862Y-93534800D01*
G75*
G02*
X97500600Y-93806538I0J-271738D01*
G01*
G37*
G36*
G01*
X95450600Y-93806538D02*
X95450600Y-94763062D01*
G75*
G02*
X95178862Y-95034800I-271738J0D01*
G01*
X94472338Y-95034800D01*
G75*
G02*
X94200600Y-94763062I0J271738D01*
G01*
X94200600Y-93806538D01*
G75*
G02*
X94472338Y-93534800I271738J0D01*
G01*
X95178862Y-93534800D01*
G75*
G02*
X95450600Y-93806538I0J-271738D01*
G01*
G37*
%TD*%
%TO.C,D2*%
G36*
G01*
X96149000Y-98166662D02*
X96149000Y-97210138D01*
G75*
G02*
X96420738Y-96938400I271738J0D01*
G01*
X97127262Y-96938400D01*
G75*
G02*
X97399000Y-97210138I0J-271738D01*
G01*
X97399000Y-98166662D01*
G75*
G02*
X97127262Y-98438400I-271738J0D01*
G01*
X96420738Y-98438400D01*
G75*
G02*
X96149000Y-98166662I0J271738D01*
G01*
G37*
G36*
G01*
X94099000Y-98166662D02*
X94099000Y-97210138D01*
G75*
G02*
X94370738Y-96938400I271738J0D01*
G01*
X95077262Y-96938400D01*
G75*
G02*
X95349000Y-97210138I0J-271738D01*
G01*
X95349000Y-98166662D01*
G75*
G02*
X95077262Y-98438400I-271738J0D01*
G01*
X94370738Y-98438400D01*
G75*
G02*
X94099000Y-98166662I0J271738D01*
G01*
G37*
%TD*%
%TO.C,R1*%
G36*
G01*
X92790538Y-88224200D02*
X93747062Y-88224200D01*
G75*
G02*
X94018800Y-88495938I0J-271738D01*
G01*
X94018800Y-89202462D01*
G75*
G02*
X93747062Y-89474200I-271738J0D01*
G01*
X92790538Y-89474200D01*
G75*
G02*
X92518800Y-89202462I0J271738D01*
G01*
X92518800Y-88495938D01*
G75*
G02*
X92790538Y-88224200I271738J0D01*
G01*
G37*
G36*
G01*
X92790538Y-90274200D02*
X93747062Y-90274200D01*
G75*
G02*
X94018800Y-90545938I0J-271738D01*
G01*
X94018800Y-91252462D01*
G75*
G02*
X93747062Y-91524200I-271738J0D01*
G01*
X92790538Y-91524200D01*
G75*
G02*
X92518800Y-91252462I0J271738D01*
G01*
X92518800Y-90545938D01*
G75*
G02*
X92790538Y-90274200I271738J0D01*
G01*
G37*
%TD*%
%TO.C,R2*%
G36*
G01*
X97049062Y-91524200D02*
X96092538Y-91524200D01*
G75*
G02*
X95820800Y-91252462I0J271738D01*
G01*
X95820800Y-90545938D01*
G75*
G02*
X96092538Y-90274200I271738J0D01*
G01*
X97049062Y-90274200D01*
G75*
G02*
X97320800Y-90545938I0J-271738D01*
G01*
X97320800Y-91252462D01*
G75*
G02*
X97049062Y-91524200I-271738J0D01*
G01*
G37*
G36*
G01*
X97049062Y-89474200D02*
X96092538Y-89474200D01*
G75*
G02*
X95820800Y-89202462I0J271738D01*
G01*
X95820800Y-88495938D01*
G75*
G02*
X96092538Y-88224200I271738J0D01*
G01*
X97049062Y-88224200D01*
G75*
G02*
X97320800Y-88495938I0J-271738D01*
G01*
X97320800Y-89202462D01*
G75*
G02*
X97049062Y-89474200I-271738J0D01*
G01*
G37*
%TD*%
%TO.C,R3*%
G36*
G01*
X85373738Y-90274200D02*
X86330262Y-90274200D01*
G75*
G02*
X86602000Y-90545938I0J-271738D01*
G01*
X86602000Y-91252462D01*
G75*
G02*
X86330262Y-91524200I-271738J0D01*
G01*
X85373738Y-91524200D01*
G75*
G02*
X85102000Y-91252462I0J271738D01*
G01*
X85102000Y-90545938D01*
G75*
G02*
X85373738Y-90274200I271738J0D01*
G01*
G37*
G36*
G01*
X85373738Y-88224200D02*
X86330262Y-88224200D01*
G75*
G02*
X86602000Y-88495938I0J-271738D01*
G01*
X86602000Y-89202462D01*
G75*
G02*
X86330262Y-89474200I-271738J0D01*
G01*
X85373738Y-89474200D01*
G75*
G02*
X85102000Y-89202462I0J271738D01*
G01*
X85102000Y-88495938D01*
G75*
G02*
X85373738Y-88224200I271738J0D01*
G01*
G37*
%TD*%
%TO.C,R4*%
G36*
G01*
X88929738Y-90274200D02*
X89886262Y-90274200D01*
G75*
G02*
X90158000Y-90545938I0J-271738D01*
G01*
X90158000Y-91252462D01*
G75*
G02*
X89886262Y-91524200I-271738J0D01*
G01*
X88929738Y-91524200D01*
G75*
G02*
X88658000Y-91252462I0J271738D01*
G01*
X88658000Y-90545938D01*
G75*
G02*
X88929738Y-90274200I271738J0D01*
G01*
G37*
G36*
G01*
X88929738Y-88224200D02*
X89886262Y-88224200D01*
G75*
G02*
X90158000Y-88495938I0J-271738D01*
G01*
X90158000Y-89202462D01*
G75*
G02*
X89886262Y-89474200I-271738J0D01*
G01*
X88929738Y-89474200D01*
G75*
G02*
X88658000Y-89202462I0J271738D01*
G01*
X88658000Y-88495938D01*
G75*
G02*
X88929738Y-88224200I271738J0D01*
G01*
G37*
%TD*%
D12*
%TO.C,SW1*%
X84683600Y-93726000D03*
X91186000Y-93726000D03*
X84683600Y-98247200D03*
X91186000Y-98247200D03*
%TD*%
D13*
%TO.C,U1*%
X102412800Y-97282000D03*
D14*
X102412800Y-94742000D03*
X102412800Y-92202000D03*
X102412800Y-89662000D03*
%TD*%
M02*
