%TF.GenerationSoftware,KiCad,Pcbnew,(5.1.6)-1*%
%TF.CreationDate,2021-03-15T13:43:59-03:00*%
%TF.ProjectId,rasp_hat,72617370-5f68-4617-942e-6b696361645f,Version 1*%
%TF.SameCoordinates,Original*%
%TF.FileFunction,Paste,Top*%
%TF.FilePolarity,Positive*%
%FSLAX46Y46*%
G04 Gerber Fmt 4.6, Leading zero omitted, Abs format (unit mm)*
G04 Created by KiCad (PCBNEW (5.1.6)-1) date 2021-03-15 13:43:59*
%MOMM*%
%LPD*%
G01*
G04 APERTURE LIST*
G04 APERTURE END LIST*
%TO.C,D1*%
G36*
G01*
X97450600Y-93834799D02*
X97450600Y-94734801D01*
G75*
G02*
X97200601Y-94984800I-249999J0D01*
G01*
X96550599Y-94984800D01*
G75*
G02*
X96300600Y-94734801I0J249999D01*
G01*
X96300600Y-93834799D01*
G75*
G02*
X96550599Y-93584800I249999J0D01*
G01*
X97200601Y-93584800D01*
G75*
G02*
X97450600Y-93834799I0J-249999D01*
G01*
G37*
G36*
G01*
X95400600Y-93834799D02*
X95400600Y-94734801D01*
G75*
G02*
X95150601Y-94984800I-249999J0D01*
G01*
X94500599Y-94984800D01*
G75*
G02*
X94250600Y-94734801I0J249999D01*
G01*
X94250600Y-93834799D01*
G75*
G02*
X94500599Y-93584800I249999J0D01*
G01*
X95150601Y-93584800D01*
G75*
G02*
X95400600Y-93834799I0J-249999D01*
G01*
G37*
%TD*%
%TO.C,D2*%
G36*
G01*
X96199000Y-98138401D02*
X96199000Y-97238399D01*
G75*
G02*
X96448999Y-96988400I249999J0D01*
G01*
X97099001Y-96988400D01*
G75*
G02*
X97349000Y-97238399I0J-249999D01*
G01*
X97349000Y-98138401D01*
G75*
G02*
X97099001Y-98388400I-249999J0D01*
G01*
X96448999Y-98388400D01*
G75*
G02*
X96199000Y-98138401I0J249999D01*
G01*
G37*
G36*
G01*
X94149000Y-98138401D02*
X94149000Y-97238399D01*
G75*
G02*
X94398999Y-96988400I249999J0D01*
G01*
X95049001Y-96988400D01*
G75*
G02*
X95299000Y-97238399I0J-249999D01*
G01*
X95299000Y-98138401D01*
G75*
G02*
X95049001Y-98388400I-249999J0D01*
G01*
X94398999Y-98388400D01*
G75*
G02*
X94149000Y-98138401I0J249999D01*
G01*
G37*
%TD*%
%TO.C,R1*%
G36*
G01*
X92818799Y-88274200D02*
X93718801Y-88274200D01*
G75*
G02*
X93968800Y-88524199I0J-249999D01*
G01*
X93968800Y-89174201D01*
G75*
G02*
X93718801Y-89424200I-249999J0D01*
G01*
X92818799Y-89424200D01*
G75*
G02*
X92568800Y-89174201I0J249999D01*
G01*
X92568800Y-88524199D01*
G75*
G02*
X92818799Y-88274200I249999J0D01*
G01*
G37*
G36*
G01*
X92818799Y-90324200D02*
X93718801Y-90324200D01*
G75*
G02*
X93968800Y-90574199I0J-249999D01*
G01*
X93968800Y-91224201D01*
G75*
G02*
X93718801Y-91474200I-249999J0D01*
G01*
X92818799Y-91474200D01*
G75*
G02*
X92568800Y-91224201I0J249999D01*
G01*
X92568800Y-90574199D01*
G75*
G02*
X92818799Y-90324200I249999J0D01*
G01*
G37*
%TD*%
%TO.C,R2*%
G36*
G01*
X97020801Y-91474200D02*
X96120799Y-91474200D01*
G75*
G02*
X95870800Y-91224201I0J249999D01*
G01*
X95870800Y-90574199D01*
G75*
G02*
X96120799Y-90324200I249999J0D01*
G01*
X97020801Y-90324200D01*
G75*
G02*
X97270800Y-90574199I0J-249999D01*
G01*
X97270800Y-91224201D01*
G75*
G02*
X97020801Y-91474200I-249999J0D01*
G01*
G37*
G36*
G01*
X97020801Y-89424200D02*
X96120799Y-89424200D01*
G75*
G02*
X95870800Y-89174201I0J249999D01*
G01*
X95870800Y-88524199D01*
G75*
G02*
X96120799Y-88274200I249999J0D01*
G01*
X97020801Y-88274200D01*
G75*
G02*
X97270800Y-88524199I0J-249999D01*
G01*
X97270800Y-89174201D01*
G75*
G02*
X97020801Y-89424200I-249999J0D01*
G01*
G37*
%TD*%
%TO.C,R3*%
G36*
G01*
X85401999Y-90324200D02*
X86302001Y-90324200D01*
G75*
G02*
X86552000Y-90574199I0J-249999D01*
G01*
X86552000Y-91224201D01*
G75*
G02*
X86302001Y-91474200I-249999J0D01*
G01*
X85401999Y-91474200D01*
G75*
G02*
X85152000Y-91224201I0J249999D01*
G01*
X85152000Y-90574199D01*
G75*
G02*
X85401999Y-90324200I249999J0D01*
G01*
G37*
G36*
G01*
X85401999Y-88274200D02*
X86302001Y-88274200D01*
G75*
G02*
X86552000Y-88524199I0J-249999D01*
G01*
X86552000Y-89174201D01*
G75*
G02*
X86302001Y-89424200I-249999J0D01*
G01*
X85401999Y-89424200D01*
G75*
G02*
X85152000Y-89174201I0J249999D01*
G01*
X85152000Y-88524199D01*
G75*
G02*
X85401999Y-88274200I249999J0D01*
G01*
G37*
%TD*%
%TO.C,R4*%
G36*
G01*
X88957999Y-90324200D02*
X89858001Y-90324200D01*
G75*
G02*
X90108000Y-90574199I0J-249999D01*
G01*
X90108000Y-91224201D01*
G75*
G02*
X89858001Y-91474200I-249999J0D01*
G01*
X88957999Y-91474200D01*
G75*
G02*
X88708000Y-91224201I0J249999D01*
G01*
X88708000Y-90574199D01*
G75*
G02*
X88957999Y-90324200I249999J0D01*
G01*
G37*
G36*
G01*
X88957999Y-88274200D02*
X89858001Y-88274200D01*
G75*
G02*
X90108000Y-88524199I0J-249999D01*
G01*
X90108000Y-89174201D01*
G75*
G02*
X89858001Y-89424200I-249999J0D01*
G01*
X88957999Y-89424200D01*
G75*
G02*
X88708000Y-89174201I0J249999D01*
G01*
X88708000Y-88524199D01*
G75*
G02*
X88957999Y-88274200I249999J0D01*
G01*
G37*
%TD*%
M02*
