M48
; DRILL file {KiCad (5.1.6)-1} date 03/15/21 13:44:03
; FORMAT={-:-/ absolute / inch / decimal}
; #@! TF.CreationDate,2021-03-15T13:44:03-03:00
; #@! TF.GenerationSoftware,Kicad,Pcbnew,(5.1.6)-1
; #@! TF.FileFunction,Plated,1,2,PTH
FMAT,2
INCH
T1C0.0315
T2C0.0394
T3C0.0400
%
G90
G05
T1
X3.3879Y-3.628
X3.5584Y-3.798
X3.66Y-3.838
X3.872Y-3.718
X4.032Y-3.53
X4.032Y-3.63
X4.032Y-3.73
X4.032Y-3.83
T2
X3.38Y-3.25
X3.38Y-3.35
X3.48Y-3.25
X3.48Y-3.35
X3.58Y-3.25
X3.58Y-3.35
X3.68Y-3.25
X3.68Y-3.35
X3.78Y-3.25
X3.78Y-3.35
X3.88Y-3.25
X3.88Y-3.35
X3.98Y-3.25
X3.98Y-3.35
X4.08Y-3.25
X4.08Y-3.35
T3
X3.334Y-3.69
X3.334Y-3.868
X3.59Y-3.69
X3.59Y-3.868
T0
M30
