%TF.GenerationSoftware,KiCad,Pcbnew,(5.1.6)-1*%
%TF.CreationDate,2021-03-15T13:43:59-03:00*%
%TF.ProjectId,rasp_hat,72617370-5f68-4617-942e-6b696361645f,Version 1*%
%TF.SameCoordinates,Original*%
%TF.FileFunction,Legend,Bot*%
%TF.FilePolarity,Positive*%
%FSLAX46Y46*%
G04 Gerber Fmt 4.6, Leading zero omitted, Abs format (unit mm)*
G04 Created by KiCad (PCBNEW (5.1.6)-1) date 2021-03-15 13:43:59*
%MOMM*%
%LPD*%
G01*
G04 APERTURE LIST*
%ADD10C,0.150000*%
%ADD11C,0.010000*%
G04 APERTURE END LIST*
D10*
X100421433Y-99233866D02*
X100421433Y-98533866D01*
X100254766Y-98533866D01*
X100154766Y-98567200D01*
X100088100Y-98633866D01*
X100054766Y-98700533D01*
X100021433Y-98833866D01*
X100021433Y-98933866D01*
X100054766Y-99067200D01*
X100088100Y-99133866D01*
X100154766Y-99200533D01*
X100254766Y-99233866D01*
X100421433Y-99233866D01*
X99454766Y-99200533D02*
X99521433Y-99233866D01*
X99654766Y-99233866D01*
X99721433Y-99200533D01*
X99754766Y-99133866D01*
X99754766Y-98867200D01*
X99721433Y-98800533D01*
X99654766Y-98767200D01*
X99521433Y-98767200D01*
X99454766Y-98800533D01*
X99421433Y-98867200D01*
X99421433Y-98933866D01*
X99754766Y-99000533D01*
X99154766Y-99200533D02*
X99088100Y-99233866D01*
X98954766Y-99233866D01*
X98888100Y-99200533D01*
X98854766Y-99133866D01*
X98854766Y-99100533D01*
X98888100Y-99033866D01*
X98954766Y-99000533D01*
X99054766Y-99000533D01*
X99121433Y-98967200D01*
X99154766Y-98900533D01*
X99154766Y-98867200D01*
X99121433Y-98800533D01*
X99054766Y-98767200D01*
X98954766Y-98767200D01*
X98888100Y-98800533D01*
X98554766Y-99233866D02*
X98554766Y-98767200D01*
X98554766Y-98533866D02*
X98588100Y-98567200D01*
X98554766Y-98600533D01*
X98521433Y-98567200D01*
X98554766Y-98533866D01*
X98554766Y-98600533D01*
X97921433Y-98767200D02*
X97921433Y-99333866D01*
X97954766Y-99400533D01*
X97988100Y-99433866D01*
X98054766Y-99467200D01*
X98154766Y-99467200D01*
X98221433Y-99433866D01*
X97921433Y-99200533D02*
X97988100Y-99233866D01*
X98121433Y-99233866D01*
X98188100Y-99200533D01*
X98221433Y-99167200D01*
X98254766Y-99100533D01*
X98254766Y-98900533D01*
X98221433Y-98833866D01*
X98188100Y-98800533D01*
X98121433Y-98767200D01*
X97988100Y-98767200D01*
X97921433Y-98800533D01*
X97588100Y-98767200D02*
X97588100Y-99233866D01*
X97588100Y-98833866D02*
X97554766Y-98800533D01*
X97488100Y-98767200D01*
X97388100Y-98767200D01*
X97321433Y-98800533D01*
X97288100Y-98867200D01*
X97288100Y-99233866D01*
X96688100Y-99200533D02*
X96754766Y-99233866D01*
X96888100Y-99233866D01*
X96954766Y-99200533D01*
X96988100Y-99133866D01*
X96988100Y-98867200D01*
X96954766Y-98800533D01*
X96888100Y-98767200D01*
X96754766Y-98767200D01*
X96688100Y-98800533D01*
X96654766Y-98867200D01*
X96654766Y-98933866D01*
X96988100Y-99000533D01*
X96054766Y-99233866D02*
X96054766Y-98533866D01*
X96054766Y-99200533D02*
X96121433Y-99233866D01*
X96254766Y-99233866D01*
X96321433Y-99200533D01*
X96354766Y-99167200D01*
X96388100Y-99100533D01*
X96388100Y-98900533D01*
X96354766Y-98833866D01*
X96321433Y-98800533D01*
X96254766Y-98767200D01*
X96121433Y-98767200D01*
X96054766Y-98800533D01*
X94954766Y-98867200D02*
X94854766Y-98900533D01*
X94821433Y-98933866D01*
X94788100Y-99000533D01*
X94788100Y-99100533D01*
X94821433Y-99167200D01*
X94854766Y-99200533D01*
X94921433Y-99233866D01*
X95188100Y-99233866D01*
X95188100Y-98533866D01*
X94954766Y-98533866D01*
X94888100Y-98567200D01*
X94854766Y-98600533D01*
X94821433Y-98667200D01*
X94821433Y-98733866D01*
X94854766Y-98800533D01*
X94888100Y-98833866D01*
X94954766Y-98867200D01*
X95188100Y-98867200D01*
X94554766Y-98767200D02*
X94388100Y-99233866D01*
X94221433Y-98767200D02*
X94388100Y-99233866D01*
X94454766Y-99400533D01*
X94488100Y-99433866D01*
X94554766Y-99467200D01*
X93954766Y-99167200D02*
X93921433Y-99200533D01*
X93954766Y-99233866D01*
X93988100Y-99200533D01*
X93954766Y-99167200D01*
X93954766Y-99233866D01*
X93954766Y-98800533D02*
X93921433Y-98833866D01*
X93954766Y-98867200D01*
X93988100Y-98833866D01*
X93954766Y-98800533D01*
X93954766Y-98867200D01*
X100088100Y-100433866D02*
X100421433Y-100433866D01*
X100421433Y-99733866D01*
X99588100Y-100400533D02*
X99654766Y-100433866D01*
X99788100Y-100433866D01*
X99854766Y-100400533D01*
X99888100Y-100333866D01*
X99888100Y-100067200D01*
X99854766Y-100000533D01*
X99788100Y-99967200D01*
X99654766Y-99967200D01*
X99588100Y-100000533D01*
X99554766Y-100067200D01*
X99554766Y-100133866D01*
X99888100Y-100200533D01*
X99154766Y-100433866D02*
X99221433Y-100400533D01*
X99254766Y-100367200D01*
X99288100Y-100300533D01*
X99288100Y-100100533D01*
X99254766Y-100033866D01*
X99221433Y-100000533D01*
X99154766Y-99967200D01*
X99054766Y-99967200D01*
X98988100Y-100000533D01*
X98954766Y-100033866D01*
X98921433Y-100100533D01*
X98921433Y-100300533D01*
X98954766Y-100367200D01*
X98988100Y-100400533D01*
X99054766Y-100433866D01*
X99154766Y-100433866D01*
X98621433Y-99967200D02*
X98621433Y-100433866D01*
X98621433Y-100033866D02*
X98588100Y-100000533D01*
X98521433Y-99967200D01*
X98421433Y-99967200D01*
X98354766Y-100000533D01*
X98321433Y-100067200D01*
X98321433Y-100433866D01*
X97688100Y-100433866D02*
X97688100Y-100067200D01*
X97721433Y-100000533D01*
X97788100Y-99967200D01*
X97921433Y-99967200D01*
X97988100Y-100000533D01*
X97688100Y-100400533D02*
X97754766Y-100433866D01*
X97921433Y-100433866D01*
X97988100Y-100400533D01*
X98021433Y-100333866D01*
X98021433Y-100267200D01*
X97988100Y-100200533D01*
X97921433Y-100167200D01*
X97754766Y-100167200D01*
X97688100Y-100133866D01*
X97354766Y-100433866D02*
X97354766Y-99967200D01*
X97354766Y-100100533D02*
X97321433Y-100033866D01*
X97288100Y-100000533D01*
X97221433Y-99967200D01*
X97154766Y-99967200D01*
X96621433Y-100433866D02*
X96621433Y-99733866D01*
X96621433Y-100400533D02*
X96688100Y-100433866D01*
X96821433Y-100433866D01*
X96888100Y-100400533D01*
X96921433Y-100367200D01*
X96954766Y-100300533D01*
X96954766Y-100100533D01*
X96921433Y-100033866D01*
X96888100Y-100000533D01*
X96821433Y-99967200D01*
X96688100Y-99967200D01*
X96621433Y-100000533D01*
X96188100Y-100433866D02*
X96254766Y-100400533D01*
X96288100Y-100367200D01*
X96321433Y-100300533D01*
X96321433Y-100100533D01*
X96288100Y-100033866D01*
X96254766Y-100000533D01*
X96188100Y-99967200D01*
X96088100Y-99967200D01*
X96021433Y-100000533D01*
X95988100Y-100033866D01*
X95954766Y-100100533D01*
X95954766Y-100300533D01*
X95988100Y-100367200D01*
X96021433Y-100400533D01*
X96088100Y-100433866D01*
X96188100Y-100433866D01*
X94888100Y-100067200D02*
X94788100Y-100100533D01*
X94754766Y-100133866D01*
X94721433Y-100200533D01*
X94721433Y-100300533D01*
X94754766Y-100367200D01*
X94788100Y-100400533D01*
X94854766Y-100433866D01*
X95121433Y-100433866D01*
X95121433Y-99733866D01*
X94888100Y-99733866D01*
X94821433Y-99767200D01*
X94788100Y-99800533D01*
X94754766Y-99867200D01*
X94754766Y-99933866D01*
X94788100Y-100000533D01*
X94821433Y-100033866D01*
X94888100Y-100067200D01*
X95121433Y-100067200D01*
X94121433Y-100433866D02*
X94121433Y-100067200D01*
X94154766Y-100000533D01*
X94221433Y-99967200D01*
X94354766Y-99967200D01*
X94421433Y-100000533D01*
X94121433Y-100400533D02*
X94188100Y-100433866D01*
X94354766Y-100433866D01*
X94421433Y-100400533D01*
X94454766Y-100333866D01*
X94454766Y-100267200D01*
X94421433Y-100200533D01*
X94354766Y-100167200D01*
X94188100Y-100167200D01*
X94121433Y-100133866D01*
X93788100Y-99967200D02*
X93788100Y-100667200D01*
X93788100Y-100000533D02*
X93721433Y-99967200D01*
X93588100Y-99967200D01*
X93521433Y-100000533D01*
X93488100Y-100033866D01*
X93454766Y-100100533D01*
X93454766Y-100300533D01*
X93488100Y-100367200D01*
X93521433Y-100400533D01*
X93588100Y-100433866D01*
X93721433Y-100433866D01*
X93788100Y-100400533D01*
X93254766Y-99967200D02*
X92988100Y-99967200D01*
X93154766Y-99733866D02*
X93154766Y-100333866D01*
X93121433Y-100400533D01*
X93054766Y-100433866D01*
X92988100Y-100433866D01*
X92754766Y-100433866D02*
X92754766Y-99967200D01*
X92754766Y-99733866D02*
X92788100Y-99767200D01*
X92754766Y-99800533D01*
X92721433Y-99767200D01*
X92754766Y-99733866D01*
X92754766Y-99800533D01*
X92454766Y-100400533D02*
X92388100Y-100433866D01*
X92254766Y-100433866D01*
X92188100Y-100400533D01*
X92154766Y-100333866D01*
X92154766Y-100300533D01*
X92188100Y-100233866D01*
X92254766Y-100200533D01*
X92354766Y-100200533D01*
X92421433Y-100167200D01*
X92454766Y-100100533D01*
X92454766Y-100067200D01*
X92421433Y-100000533D01*
X92354766Y-99967200D01*
X92254766Y-99967200D01*
X92188100Y-100000533D01*
X91954766Y-99967200D02*
X91688100Y-99967200D01*
X91854766Y-99733866D02*
X91854766Y-100333866D01*
X91821433Y-100400533D01*
X91754766Y-100433866D01*
X91688100Y-100433866D01*
X91188100Y-100400533D02*
X91254766Y-100433866D01*
X91388100Y-100433866D01*
X91454766Y-100400533D01*
X91488100Y-100333866D01*
X91488100Y-100067200D01*
X91454766Y-100000533D01*
X91388100Y-99967200D01*
X91254766Y-99967200D01*
X91188100Y-100000533D01*
X91154766Y-100067200D01*
X91154766Y-100133866D01*
X91488100Y-100200533D01*
X90754766Y-100433866D02*
X90821433Y-100400533D01*
X90854766Y-100333866D01*
X90854766Y-99733866D01*
X90388100Y-100433866D02*
X90454766Y-100400533D01*
X90488100Y-100333866D01*
X90488100Y-99733866D01*
X89821433Y-100433866D02*
X89821433Y-100067200D01*
X89854766Y-100000533D01*
X89921433Y-99967200D01*
X90054766Y-99967200D01*
X90121433Y-100000533D01*
X89821433Y-100400533D02*
X89888100Y-100433866D01*
X90054766Y-100433866D01*
X90121433Y-100400533D01*
X90154766Y-100333866D01*
X90154766Y-100267200D01*
X90121433Y-100200533D01*
X90054766Y-100167200D01*
X89888100Y-100167200D01*
X89821433Y-100133866D01*
D11*
%TO.C,REF\u002A\u002A*%
G36*
X88563977Y-91580933D02*
G01*
X88532598Y-91603176D01*
X88504889Y-91630885D01*
X88504889Y-91940320D01*
X88504962Y-92032199D01*
X88505305Y-92104240D01*
X88506108Y-92159180D01*
X88507559Y-92199760D01*
X88509848Y-92228717D01*
X88513164Y-92248791D01*
X88517695Y-92262721D01*
X88523631Y-92273245D01*
X88528286Y-92279500D01*
X88559017Y-92304073D01*
X88594304Y-92306741D01*
X88626555Y-92291671D01*
X88637212Y-92282774D01*
X88644336Y-92270957D01*
X88648633Y-92251926D01*
X88650809Y-92221392D01*
X88651572Y-92175062D01*
X88651645Y-92139271D01*
X88651645Y-92004445D01*
X89148356Y-92004445D01*
X89148356Y-92127100D01*
X89148869Y-92183187D01*
X89150924Y-92221733D01*
X89155292Y-92247761D01*
X89162744Y-92266297D01*
X89171753Y-92279500D01*
X89202656Y-92304004D01*
X89237604Y-92306906D01*
X89271062Y-92289489D01*
X89280196Y-92280359D01*
X89286648Y-92268255D01*
X89290903Y-92249401D01*
X89293448Y-92220020D01*
X89294771Y-92176337D01*
X89295357Y-92114575D01*
X89295425Y-92100400D01*
X89295909Y-91984031D01*
X89296159Y-91888127D01*
X89296077Y-91810577D01*
X89295569Y-91749269D01*
X89294538Y-91702090D01*
X89292887Y-91666930D01*
X89290521Y-91641676D01*
X89287343Y-91624217D01*
X89283256Y-91612441D01*
X89278166Y-91604235D01*
X89272534Y-91598045D01*
X89240672Y-91578244D01*
X89207443Y-91580933D01*
X89176065Y-91603176D01*
X89163367Y-91617526D01*
X89155274Y-91633378D01*
X89150758Y-91655954D01*
X89148794Y-91690478D01*
X89148356Y-91742176D01*
X89148356Y-91857689D01*
X88651645Y-91857689D01*
X88651645Y-91739156D01*
X88651138Y-91684548D01*
X88649102Y-91647675D01*
X88644765Y-91623707D01*
X88637353Y-91607815D01*
X88629067Y-91598045D01*
X88597206Y-91578244D01*
X88563977Y-91580933D01*
G37*
X88563977Y-91580933D02*
X88532598Y-91603176D01*
X88504889Y-91630885D01*
X88504889Y-91940320D01*
X88504962Y-92032199D01*
X88505305Y-92104240D01*
X88506108Y-92159180D01*
X88507559Y-92199760D01*
X88509848Y-92228717D01*
X88513164Y-92248791D01*
X88517695Y-92262721D01*
X88523631Y-92273245D01*
X88528286Y-92279500D01*
X88559017Y-92304073D01*
X88594304Y-92306741D01*
X88626555Y-92291671D01*
X88637212Y-92282774D01*
X88644336Y-92270957D01*
X88648633Y-92251926D01*
X88650809Y-92221392D01*
X88651572Y-92175062D01*
X88651645Y-92139271D01*
X88651645Y-92004445D01*
X89148356Y-92004445D01*
X89148356Y-92127100D01*
X89148869Y-92183187D01*
X89150924Y-92221733D01*
X89155292Y-92247761D01*
X89162744Y-92266297D01*
X89171753Y-92279500D01*
X89202656Y-92304004D01*
X89237604Y-92306906D01*
X89271062Y-92289489D01*
X89280196Y-92280359D01*
X89286648Y-92268255D01*
X89290903Y-92249401D01*
X89293448Y-92220020D01*
X89294771Y-92176337D01*
X89295357Y-92114575D01*
X89295425Y-92100400D01*
X89295909Y-91984031D01*
X89296159Y-91888127D01*
X89296077Y-91810577D01*
X89295569Y-91749269D01*
X89294538Y-91702090D01*
X89292887Y-91666930D01*
X89290521Y-91641676D01*
X89287343Y-91624217D01*
X89283256Y-91612441D01*
X89278166Y-91604235D01*
X89272534Y-91598045D01*
X89240672Y-91578244D01*
X89207443Y-91580933D01*
X89176065Y-91603176D01*
X89163367Y-91617526D01*
X89155274Y-91633378D01*
X89150758Y-91655954D01*
X89148794Y-91690478D01*
X89148356Y-91742176D01*
X89148356Y-91857689D01*
X88651645Y-91857689D01*
X88651645Y-91739156D01*
X88651138Y-91684548D01*
X88649102Y-91647675D01*
X88644765Y-91623707D01*
X88637353Y-91607815D01*
X88629067Y-91598045D01*
X88597206Y-91578244D01*
X88563977Y-91580933D01*
G36*
X89829735Y-91575563D02*
G01*
X89751028Y-91575942D01*
X89689937Y-91576733D01*
X89643983Y-91578070D01*
X89610686Y-91580083D01*
X89587564Y-91582906D01*
X89572138Y-91586669D01*
X89561929Y-91591505D01*
X89556987Y-91595222D01*
X89531343Y-91627758D01*
X89528241Y-91661538D01*
X89544089Y-91692226D01*
X89554452Y-91704489D01*
X89565604Y-91712850D01*
X89581765Y-91718057D01*
X89607158Y-91720857D01*
X89646002Y-91721996D01*
X89702520Y-91722221D01*
X89713620Y-91722222D01*
X89859556Y-91722222D01*
X89859556Y-91993156D01*
X89859652Y-92078554D01*
X89860089Y-92144264D01*
X89861088Y-92193174D01*
X89862872Y-92228173D01*
X89865663Y-92252149D01*
X89869683Y-92267993D01*
X89875155Y-92278591D01*
X89882134Y-92286667D01*
X89915066Y-92306512D01*
X89949446Y-92304948D01*
X89980624Y-92282306D01*
X89982914Y-92279500D01*
X89990371Y-92268892D01*
X89996053Y-92256481D01*
X90000199Y-92239250D01*
X90003050Y-92214184D01*
X90004846Y-92178267D01*
X90005828Y-92128483D01*
X90006236Y-92061817D01*
X90006311Y-91985989D01*
X90006311Y-91722222D01*
X90145673Y-91722222D01*
X90205478Y-91721818D01*
X90246882Y-91720240D01*
X90274052Y-91716947D01*
X90291154Y-91711392D01*
X90302357Y-91703031D01*
X90303717Y-91701578D01*
X90320075Y-91668339D01*
X90318628Y-91630762D01*
X90299822Y-91598045D01*
X90292550Y-91591698D01*
X90283173Y-91586666D01*
X90269191Y-91582796D01*
X90248104Y-91579937D01*
X90217411Y-91577935D01*
X90174611Y-91576639D01*
X90117205Y-91575898D01*
X90042690Y-91575558D01*
X89948567Y-91575468D01*
X89928540Y-91575467D01*
X89829735Y-91575563D01*
G37*
X89829735Y-91575563D02*
X89751028Y-91575942D01*
X89689937Y-91576733D01*
X89643983Y-91578070D01*
X89610686Y-91580083D01*
X89587564Y-91582906D01*
X89572138Y-91586669D01*
X89561929Y-91591505D01*
X89556987Y-91595222D01*
X89531343Y-91627758D01*
X89528241Y-91661538D01*
X89544089Y-91692226D01*
X89554452Y-91704489D01*
X89565604Y-91712850D01*
X89581765Y-91718057D01*
X89607158Y-91720857D01*
X89646002Y-91721996D01*
X89702520Y-91722221D01*
X89713620Y-91722222D01*
X89859556Y-91722222D01*
X89859556Y-91993156D01*
X89859652Y-92078554D01*
X89860089Y-92144264D01*
X89861088Y-92193174D01*
X89862872Y-92228173D01*
X89865663Y-92252149D01*
X89869683Y-92267993D01*
X89875155Y-92278591D01*
X89882134Y-92286667D01*
X89915066Y-92306512D01*
X89949446Y-92304948D01*
X89980624Y-92282306D01*
X89982914Y-92279500D01*
X89990371Y-92268892D01*
X89996053Y-92256481D01*
X90000199Y-92239250D01*
X90003050Y-92214184D01*
X90004846Y-92178267D01*
X90005828Y-92128483D01*
X90006236Y-92061817D01*
X90006311Y-91985989D01*
X90006311Y-91722222D01*
X90145673Y-91722222D01*
X90205478Y-91721818D01*
X90246882Y-91720240D01*
X90274052Y-91716947D01*
X90291154Y-91711392D01*
X90302357Y-91703031D01*
X90303717Y-91701578D01*
X90320075Y-91668339D01*
X90318628Y-91630762D01*
X90299822Y-91598045D01*
X90292550Y-91591698D01*
X90283173Y-91586666D01*
X90269191Y-91582796D01*
X90248104Y-91579937D01*
X90217411Y-91577935D01*
X90174611Y-91576639D01*
X90117205Y-91575898D01*
X90042690Y-91575558D01*
X89948567Y-91575468D01*
X89928540Y-91575467D01*
X89829735Y-91575563D01*
G36*
X90604186Y-91582277D02*
G01*
X90580473Y-91597047D01*
X90553822Y-91618627D01*
X90553822Y-91940173D01*
X90553907Y-92034230D01*
X90554271Y-92108332D01*
X90555076Y-92165104D01*
X90556487Y-92207168D01*
X90558667Y-92237148D01*
X90561779Y-92257667D01*
X90565986Y-92271349D01*
X90571452Y-92280816D01*
X90575328Y-92285482D01*
X90606766Y-92305975D01*
X90642567Y-92305139D01*
X90673927Y-92287664D01*
X90700578Y-92266084D01*
X90700578Y-91618627D01*
X90673927Y-91597047D01*
X90648206Y-91581349D01*
X90627200Y-91575467D01*
X90604186Y-91582277D01*
G37*
X90604186Y-91582277D02*
X90580473Y-91597047D01*
X90553822Y-91618627D01*
X90553822Y-91940173D01*
X90553907Y-92034230D01*
X90554271Y-92108332D01*
X90555076Y-92165104D01*
X90556487Y-92207168D01*
X90558667Y-92237148D01*
X90561779Y-92257667D01*
X90565986Y-92271349D01*
X90571452Y-92280816D01*
X90575328Y-92285482D01*
X90606766Y-92305975D01*
X90642567Y-92305139D01*
X90673927Y-92287664D01*
X90700578Y-92266084D01*
X90700578Y-91618627D01*
X90673927Y-91597047D01*
X90648206Y-91581349D01*
X90627200Y-91575467D01*
X90604186Y-91582277D01*
G36*
X91048135Y-91577434D02*
G01*
X91028545Y-91584435D01*
X91027790Y-91584777D01*
X91001187Y-91605078D01*
X90986530Y-91625961D01*
X90983662Y-91635752D01*
X90983804Y-91648761D01*
X90987839Y-91667295D01*
X90996654Y-91693657D01*
X91011131Y-91730152D01*
X91032155Y-91779087D01*
X91060612Y-91842765D01*
X91097385Y-91923493D01*
X91117625Y-91967616D01*
X91154175Y-92046385D01*
X91188485Y-92118823D01*
X91219248Y-92182280D01*
X91245152Y-92234108D01*
X91264890Y-92271659D01*
X91277150Y-92292284D01*
X91279576Y-92295133D01*
X91310617Y-92307702D01*
X91345679Y-92306019D01*
X91373800Y-92290732D01*
X91374946Y-92289489D01*
X91386132Y-92272554D01*
X91404896Y-92239570D01*
X91428925Y-92194780D01*
X91455903Y-92142432D01*
X91465599Y-92123142D01*
X91538786Y-91976550D01*
X91618560Y-92135793D01*
X91647033Y-92190815D01*
X91673450Y-92238532D01*
X91695652Y-92275293D01*
X91711481Y-92297444D01*
X91716846Y-92302141D01*
X91758543Y-92308502D01*
X91792951Y-92295133D01*
X91803072Y-92280846D01*
X91820586Y-92249092D01*
X91844065Y-92202997D01*
X91872080Y-92145685D01*
X91903201Y-92080280D01*
X91936001Y-92009907D01*
X91969050Y-91937691D01*
X92000919Y-91866755D01*
X92030181Y-91800225D01*
X92055405Y-91741226D01*
X92075164Y-91692881D01*
X92088028Y-91658315D01*
X92092569Y-91640653D01*
X92092523Y-91640013D01*
X92081474Y-91617788D01*
X92059390Y-91595153D01*
X92058090Y-91594168D01*
X92030947Y-91578825D01*
X92005842Y-91578974D01*
X91996432Y-91581866D01*
X91984966Y-91588118D01*
X91972790Y-91600414D01*
X91958443Y-91621308D01*
X91940464Y-91653349D01*
X91917393Y-91699088D01*
X91887770Y-91761077D01*
X91861055Y-91818298D01*
X91830320Y-91884626D01*
X91802779Y-91944274D01*
X91779862Y-91994125D01*
X91763002Y-92031064D01*
X91753627Y-92051973D01*
X91752260Y-92055245D01*
X91746111Y-92049897D01*
X91731978Y-92027509D01*
X91711743Y-91991346D01*
X91687285Y-91944677D01*
X91677552Y-91925422D01*
X91644583Y-91860404D01*
X91619157Y-91813054D01*
X91599188Y-91780619D01*
X91582590Y-91760346D01*
X91567276Y-91749482D01*
X91551160Y-91745275D01*
X91540657Y-91744800D01*
X91522130Y-91746442D01*
X91505896Y-91753231D01*
X91489765Y-91767966D01*
X91471549Y-91793444D01*
X91449061Y-91832461D01*
X91420111Y-91887814D01*
X91404138Y-91919303D01*
X91378230Y-91969487D01*
X91355633Y-92011104D01*
X91338342Y-92040642D01*
X91328350Y-92054589D01*
X91326991Y-92055170D01*
X91320539Y-92044193D01*
X91306092Y-92015690D01*
X91285097Y-91972644D01*
X91259003Y-91918038D01*
X91229254Y-91854854D01*
X91214620Y-91823471D01*
X91176550Y-91742478D01*
X91145895Y-91680156D01*
X91121063Y-91634471D01*
X91100463Y-91603389D01*
X91082502Y-91584878D01*
X91065590Y-91576904D01*
X91048135Y-91577434D01*
G37*
X91048135Y-91577434D02*
X91028545Y-91584435D01*
X91027790Y-91584777D01*
X91001187Y-91605078D01*
X90986530Y-91625961D01*
X90983662Y-91635752D01*
X90983804Y-91648761D01*
X90987839Y-91667295D01*
X90996654Y-91693657D01*
X91011131Y-91730152D01*
X91032155Y-91779087D01*
X91060612Y-91842765D01*
X91097385Y-91923493D01*
X91117625Y-91967616D01*
X91154175Y-92046385D01*
X91188485Y-92118823D01*
X91219248Y-92182280D01*
X91245152Y-92234108D01*
X91264890Y-92271659D01*
X91277150Y-92292284D01*
X91279576Y-92295133D01*
X91310617Y-92307702D01*
X91345679Y-92306019D01*
X91373800Y-92290732D01*
X91374946Y-92289489D01*
X91386132Y-92272554D01*
X91404896Y-92239570D01*
X91428925Y-92194780D01*
X91455903Y-92142432D01*
X91465599Y-92123142D01*
X91538786Y-91976550D01*
X91618560Y-92135793D01*
X91647033Y-92190815D01*
X91673450Y-92238532D01*
X91695652Y-92275293D01*
X91711481Y-92297444D01*
X91716846Y-92302141D01*
X91758543Y-92308502D01*
X91792951Y-92295133D01*
X91803072Y-92280846D01*
X91820586Y-92249092D01*
X91844065Y-92202997D01*
X91872080Y-92145685D01*
X91903201Y-92080280D01*
X91936001Y-92009907D01*
X91969050Y-91937691D01*
X92000919Y-91866755D01*
X92030181Y-91800225D01*
X92055405Y-91741226D01*
X92075164Y-91692881D01*
X92088028Y-91658315D01*
X92092569Y-91640653D01*
X92092523Y-91640013D01*
X92081474Y-91617788D01*
X92059390Y-91595153D01*
X92058090Y-91594168D01*
X92030947Y-91578825D01*
X92005842Y-91578974D01*
X91996432Y-91581866D01*
X91984966Y-91588118D01*
X91972790Y-91600414D01*
X91958443Y-91621308D01*
X91940464Y-91653349D01*
X91917393Y-91699088D01*
X91887770Y-91761077D01*
X91861055Y-91818298D01*
X91830320Y-91884626D01*
X91802779Y-91944274D01*
X91779862Y-91994125D01*
X91763002Y-92031064D01*
X91753627Y-92051973D01*
X91752260Y-92055245D01*
X91746111Y-92049897D01*
X91731978Y-92027509D01*
X91711743Y-91991346D01*
X91687285Y-91944677D01*
X91677552Y-91925422D01*
X91644583Y-91860404D01*
X91619157Y-91813054D01*
X91599188Y-91780619D01*
X91582590Y-91760346D01*
X91567276Y-91749482D01*
X91551160Y-91745275D01*
X91540657Y-91744800D01*
X91522130Y-91746442D01*
X91505896Y-91753231D01*
X91489765Y-91767966D01*
X91471549Y-91793444D01*
X91449061Y-91832461D01*
X91420111Y-91887814D01*
X91404138Y-91919303D01*
X91378230Y-91969487D01*
X91355633Y-92011104D01*
X91338342Y-92040642D01*
X91328350Y-92054589D01*
X91326991Y-92055170D01*
X91320539Y-92044193D01*
X91306092Y-92015690D01*
X91285097Y-91972644D01*
X91259003Y-91918038D01*
X91229254Y-91854854D01*
X91214620Y-91823471D01*
X91176550Y-91742478D01*
X91145895Y-91680156D01*
X91121063Y-91634471D01*
X91100463Y-91603389D01*
X91082502Y-91584878D01*
X91065590Y-91576904D01*
X91048135Y-91577434D01*
G36*
X93774491Y-91575675D02*
G01*
X93645512Y-91580036D01*
X93535809Y-91593261D01*
X93443574Y-91616141D01*
X93366998Y-91649470D01*
X93304273Y-91694038D01*
X93253588Y-91750636D01*
X93213137Y-91820058D01*
X93212341Y-91821751D01*
X93188199Y-91883883D01*
X93179597Y-91938909D01*
X93186569Y-91994287D01*
X93209146Y-92057473D01*
X93213428Y-92067089D01*
X93242628Y-92123366D01*
X93275444Y-92166851D01*
X93317798Y-92203817D01*
X93375610Y-92240535D01*
X93378969Y-92242452D01*
X93429296Y-92266627D01*
X93486179Y-92284682D01*
X93553273Y-92297239D01*
X93634235Y-92304922D01*
X93732718Y-92308353D01*
X93767514Y-92308651D01*
X93933206Y-92309245D01*
X93956603Y-92279500D01*
X93963543Y-92269719D01*
X93968958Y-92258297D01*
X93973035Y-92242495D01*
X93975963Y-92219575D01*
X93977933Y-92186796D01*
X93978575Y-92162489D01*
X93821956Y-92162489D01*
X93728074Y-92162489D01*
X93673136Y-92160883D01*
X93616740Y-92156655D01*
X93570455Y-92150692D01*
X93567661Y-92150190D01*
X93485452Y-92128136D01*
X93421686Y-92095000D01*
X93374348Y-92049247D01*
X93341418Y-91989339D01*
X93335692Y-91973461D01*
X93330079Y-91948733D01*
X93332509Y-91924302D01*
X93344333Y-91891800D01*
X93351460Y-91875834D01*
X93374800Y-91833406D01*
X93402920Y-91803640D01*
X93433860Y-91782911D01*
X93495834Y-91755937D01*
X93575149Y-91736398D01*
X93667547Y-91725146D01*
X93734467Y-91722670D01*
X93821956Y-91722222D01*
X93821956Y-92162489D01*
X93978575Y-92162489D01*
X93979132Y-92141421D01*
X93979750Y-92080711D01*
X93979975Y-92001926D01*
X93980000Y-91940320D01*
X93980000Y-91630885D01*
X93952291Y-91603176D01*
X93939994Y-91591944D01*
X93926697Y-91584253D01*
X93908128Y-91579440D01*
X93880014Y-91576846D01*
X93838083Y-91575810D01*
X93778063Y-91575670D01*
X93774491Y-91575675D01*
G37*
X93774491Y-91575675D02*
X93645512Y-91580036D01*
X93535809Y-91593261D01*
X93443574Y-91616141D01*
X93366998Y-91649470D01*
X93304273Y-91694038D01*
X93253588Y-91750636D01*
X93213137Y-91820058D01*
X93212341Y-91821751D01*
X93188199Y-91883883D01*
X93179597Y-91938909D01*
X93186569Y-91994287D01*
X93209146Y-92057473D01*
X93213428Y-92067089D01*
X93242628Y-92123366D01*
X93275444Y-92166851D01*
X93317798Y-92203817D01*
X93375610Y-92240535D01*
X93378969Y-92242452D01*
X93429296Y-92266627D01*
X93486179Y-92284682D01*
X93553273Y-92297239D01*
X93634235Y-92304922D01*
X93732718Y-92308353D01*
X93767514Y-92308651D01*
X93933206Y-92309245D01*
X93956603Y-92279500D01*
X93963543Y-92269719D01*
X93968958Y-92258297D01*
X93973035Y-92242495D01*
X93975963Y-92219575D01*
X93977933Y-92186796D01*
X93978575Y-92162489D01*
X93821956Y-92162489D01*
X93728074Y-92162489D01*
X93673136Y-92160883D01*
X93616740Y-92156655D01*
X93570455Y-92150692D01*
X93567661Y-92150190D01*
X93485452Y-92128136D01*
X93421686Y-92095000D01*
X93374348Y-92049247D01*
X93341418Y-91989339D01*
X93335692Y-91973461D01*
X93330079Y-91948733D01*
X93332509Y-91924302D01*
X93344333Y-91891800D01*
X93351460Y-91875834D01*
X93374800Y-91833406D01*
X93402920Y-91803640D01*
X93433860Y-91782911D01*
X93495834Y-91755937D01*
X93575149Y-91736398D01*
X93667547Y-91725146D01*
X93734467Y-91722670D01*
X93821956Y-91722222D01*
X93821956Y-92162489D01*
X93978575Y-92162489D01*
X93979132Y-92141421D01*
X93979750Y-92080711D01*
X93979975Y-92001926D01*
X93980000Y-91940320D01*
X93980000Y-91630885D01*
X93952291Y-91603176D01*
X93939994Y-91591944D01*
X93926697Y-91584253D01*
X93908128Y-91579440D01*
X93880014Y-91576846D01*
X93838083Y-91575810D01*
X93778063Y-91575670D01*
X93774491Y-91575675D01*
G36*
X94562457Y-91575660D02*
G01*
X94486099Y-91576574D01*
X94427583Y-91578711D01*
X94384545Y-91582575D01*
X94354617Y-91588667D01*
X94335432Y-91597490D01*
X94324624Y-91609546D01*
X94319827Y-91625339D01*
X94318673Y-91645370D01*
X94318667Y-91647735D01*
X94319669Y-91670392D01*
X94324404Y-91687903D01*
X94335467Y-91700974D01*
X94355452Y-91710313D01*
X94386954Y-91716627D01*
X94432568Y-91720622D01*
X94494887Y-91723006D01*
X94576507Y-91724486D01*
X94601523Y-91724814D01*
X94843600Y-91727867D01*
X94846986Y-91792778D01*
X94850371Y-91857689D01*
X94682224Y-91857689D01*
X94616534Y-91857931D01*
X94569628Y-91858956D01*
X94537717Y-91861211D01*
X94517009Y-91865142D01*
X94503716Y-91871198D01*
X94494045Y-91879824D01*
X94493983Y-91879893D01*
X94476444Y-91913512D01*
X94477078Y-91949848D01*
X94495486Y-91980823D01*
X94499129Y-91984007D01*
X94512059Y-91992212D01*
X94529776Y-91997921D01*
X94556230Y-92001562D01*
X94595368Y-92003567D01*
X94651138Y-92004364D01*
X94686806Y-92004445D01*
X94849245Y-92004445D01*
X94849245Y-92162489D01*
X94602639Y-92162489D01*
X94521220Y-92162631D01*
X94459390Y-92163214D01*
X94414163Y-92164468D01*
X94382552Y-92166627D01*
X94361569Y-92169923D01*
X94348227Y-92174589D01*
X94339539Y-92180857D01*
X94337350Y-92183133D01*
X94321186Y-92214680D01*
X94320003Y-92250568D01*
X94333264Y-92281685D01*
X94343757Y-92291671D01*
X94354671Y-92297169D01*
X94371583Y-92301422D01*
X94397167Y-92304580D01*
X94434099Y-92306792D01*
X94485054Y-92308206D01*
X94552706Y-92308972D01*
X94639731Y-92309238D01*
X94659406Y-92309245D01*
X94747889Y-92309187D01*
X94816573Y-92308867D01*
X94868236Y-92308067D01*
X94905655Y-92306567D01*
X94931610Y-92304149D01*
X94948878Y-92300594D01*
X94960238Y-92295682D01*
X94968468Y-92289195D01*
X94972983Y-92284538D01*
X94979779Y-92276289D01*
X94985088Y-92266069D01*
X94989094Y-92251200D01*
X94991979Y-92229002D01*
X94993926Y-92196793D01*
X94995119Y-92151896D01*
X94995739Y-92091628D01*
X94995971Y-92013311D01*
X94996000Y-91947394D01*
X94995929Y-91855028D01*
X94995592Y-91782517D01*
X94994802Y-91727137D01*
X94993374Y-91686165D01*
X94991121Y-91656878D01*
X94987857Y-91636553D01*
X94983396Y-91622466D01*
X94977552Y-91611895D01*
X94972603Y-91605211D01*
X94949206Y-91575467D01*
X94659026Y-91575467D01*
X94562457Y-91575660D01*
G37*
X94562457Y-91575660D02*
X94486099Y-91576574D01*
X94427583Y-91578711D01*
X94384545Y-91582575D01*
X94354617Y-91588667D01*
X94335432Y-91597490D01*
X94324624Y-91609546D01*
X94319827Y-91625339D01*
X94318673Y-91645370D01*
X94318667Y-91647735D01*
X94319669Y-91670392D01*
X94324404Y-91687903D01*
X94335467Y-91700974D01*
X94355452Y-91710313D01*
X94386954Y-91716627D01*
X94432568Y-91720622D01*
X94494887Y-91723006D01*
X94576507Y-91724486D01*
X94601523Y-91724814D01*
X94843600Y-91727867D01*
X94846986Y-91792778D01*
X94850371Y-91857689D01*
X94682224Y-91857689D01*
X94616534Y-91857931D01*
X94569628Y-91858956D01*
X94537717Y-91861211D01*
X94517009Y-91865142D01*
X94503716Y-91871198D01*
X94494045Y-91879824D01*
X94493983Y-91879893D01*
X94476444Y-91913512D01*
X94477078Y-91949848D01*
X94495486Y-91980823D01*
X94499129Y-91984007D01*
X94512059Y-91992212D01*
X94529776Y-91997921D01*
X94556230Y-92001562D01*
X94595368Y-92003567D01*
X94651138Y-92004364D01*
X94686806Y-92004445D01*
X94849245Y-92004445D01*
X94849245Y-92162489D01*
X94602639Y-92162489D01*
X94521220Y-92162631D01*
X94459390Y-92163214D01*
X94414163Y-92164468D01*
X94382552Y-92166627D01*
X94361569Y-92169923D01*
X94348227Y-92174589D01*
X94339539Y-92180857D01*
X94337350Y-92183133D01*
X94321186Y-92214680D01*
X94320003Y-92250568D01*
X94333264Y-92281685D01*
X94343757Y-92291671D01*
X94354671Y-92297169D01*
X94371583Y-92301422D01*
X94397167Y-92304580D01*
X94434099Y-92306792D01*
X94485054Y-92308206D01*
X94552706Y-92308972D01*
X94639731Y-92309238D01*
X94659406Y-92309245D01*
X94747889Y-92309187D01*
X94816573Y-92308867D01*
X94868236Y-92308067D01*
X94905655Y-92306567D01*
X94931610Y-92304149D01*
X94948878Y-92300594D01*
X94960238Y-92295682D01*
X94968468Y-92289195D01*
X94972983Y-92284538D01*
X94979779Y-92276289D01*
X94985088Y-92266069D01*
X94989094Y-92251200D01*
X94991979Y-92229002D01*
X94993926Y-92196793D01*
X94995119Y-92151896D01*
X94995739Y-92091628D01*
X94995971Y-92013311D01*
X94996000Y-91947394D01*
X94995929Y-91855028D01*
X94995592Y-91782517D01*
X94994802Y-91727137D01*
X94993374Y-91686165D01*
X94991121Y-91656878D01*
X94987857Y-91636553D01*
X94983396Y-91622466D01*
X94977552Y-91611895D01*
X94972603Y-91605211D01*
X94949206Y-91575467D01*
X94659026Y-91575467D01*
X94562457Y-91575660D01*
G36*
X96092914Y-91579848D02*
G01*
X96069348Y-91593673D01*
X96038535Y-91616281D01*
X95998878Y-91648738D01*
X95948780Y-91692108D01*
X95886643Y-91747458D01*
X95810872Y-91815851D01*
X95724134Y-91894484D01*
X95543511Y-92058278D01*
X95537867Y-91838429D01*
X95535829Y-91762751D01*
X95533863Y-91706394D01*
X95531534Y-91666106D01*
X95528406Y-91638635D01*
X95524045Y-91620729D01*
X95518016Y-91609137D01*
X95509884Y-91600608D01*
X95505572Y-91597023D01*
X95471041Y-91578070D01*
X95438183Y-91580841D01*
X95412118Y-91597033D01*
X95385467Y-91618599D01*
X95382152Y-91933551D01*
X95381235Y-92026179D01*
X95380768Y-92098944D01*
X95380913Y-92154561D01*
X95381832Y-92195742D01*
X95383687Y-92225203D01*
X95386639Y-92245655D01*
X95390850Y-92259813D01*
X95396482Y-92270391D01*
X95402727Y-92278874D01*
X95416239Y-92294607D01*
X95429683Y-92305036D01*
X95444924Y-92309039D01*
X95463826Y-92305494D01*
X95488255Y-92293279D01*
X95520073Y-92271271D01*
X95561148Y-92238349D01*
X95613342Y-92193391D01*
X95678522Y-92135275D01*
X95752356Y-92068499D01*
X96017645Y-91827858D01*
X96023289Y-92046989D01*
X96025331Y-92122528D01*
X96027302Y-92178754D01*
X96029639Y-92218924D01*
X96032781Y-92246296D01*
X96037164Y-92264128D01*
X96043224Y-92275679D01*
X96051400Y-92284207D01*
X96055584Y-92287682D01*
X96092565Y-92306772D01*
X96127508Y-92303893D01*
X96157936Y-92279500D01*
X96164897Y-92269686D01*
X96170323Y-92258226D01*
X96174403Y-92242368D01*
X96177329Y-92219363D01*
X96179292Y-92186462D01*
X96180483Y-92140916D01*
X96181092Y-92079973D01*
X96181311Y-92000886D01*
X96181334Y-91942356D01*
X96181260Y-91850807D01*
X96180913Y-91779087D01*
X96180101Y-91724445D01*
X96178633Y-91684132D01*
X96176319Y-91655398D01*
X96172967Y-91635493D01*
X96168388Y-91621668D01*
X96162389Y-91611172D01*
X96157936Y-91605211D01*
X96146650Y-91591091D01*
X96136101Y-91580429D01*
X96124693Y-91574292D01*
X96110830Y-91573743D01*
X96092914Y-91579848D01*
G37*
X96092914Y-91579848D02*
X96069348Y-91593673D01*
X96038535Y-91616281D01*
X95998878Y-91648738D01*
X95948780Y-91692108D01*
X95886643Y-91747458D01*
X95810872Y-91815851D01*
X95724134Y-91894484D01*
X95543511Y-92058278D01*
X95537867Y-91838429D01*
X95535829Y-91762751D01*
X95533863Y-91706394D01*
X95531534Y-91666106D01*
X95528406Y-91638635D01*
X95524045Y-91620729D01*
X95518016Y-91609137D01*
X95509884Y-91600608D01*
X95505572Y-91597023D01*
X95471041Y-91578070D01*
X95438183Y-91580841D01*
X95412118Y-91597033D01*
X95385467Y-91618599D01*
X95382152Y-91933551D01*
X95381235Y-92026179D01*
X95380768Y-92098944D01*
X95380913Y-92154561D01*
X95381832Y-92195742D01*
X95383687Y-92225203D01*
X95386639Y-92245655D01*
X95390850Y-92259813D01*
X95396482Y-92270391D01*
X95402727Y-92278874D01*
X95416239Y-92294607D01*
X95429683Y-92305036D01*
X95444924Y-92309039D01*
X95463826Y-92305494D01*
X95488255Y-92293279D01*
X95520073Y-92271271D01*
X95561148Y-92238349D01*
X95613342Y-92193391D01*
X95678522Y-92135275D01*
X95752356Y-92068499D01*
X96017645Y-91827858D01*
X96023289Y-92046989D01*
X96025331Y-92122528D01*
X96027302Y-92178754D01*
X96029639Y-92218924D01*
X96032781Y-92246296D01*
X96037164Y-92264128D01*
X96043224Y-92275679D01*
X96051400Y-92284207D01*
X96055584Y-92287682D01*
X96092565Y-92306772D01*
X96127508Y-92303893D01*
X96157936Y-92279500D01*
X96164897Y-92269686D01*
X96170323Y-92258226D01*
X96174403Y-92242368D01*
X96177329Y-92219363D01*
X96179292Y-92186462D01*
X96180483Y-92140916D01*
X96181092Y-92079973D01*
X96181311Y-92000886D01*
X96181334Y-91942356D01*
X96181260Y-91850807D01*
X96180913Y-91779087D01*
X96180101Y-91724445D01*
X96178633Y-91684132D01*
X96176319Y-91655398D01*
X96172967Y-91635493D01*
X96168388Y-91621668D01*
X96162389Y-91611172D01*
X96157936Y-91605211D01*
X96146650Y-91591091D01*
X96136101Y-91580429D01*
X96124693Y-91574292D01*
X96110830Y-91573743D01*
X96092914Y-91579848D01*
G36*
X96742881Y-91580999D02*
G01*
X96674365Y-91592495D01*
X96621743Y-91610367D01*
X96587508Y-91633899D01*
X96578179Y-91647324D01*
X96568693Y-91678548D01*
X96575077Y-91706795D01*
X96595230Y-91733582D01*
X96626545Y-91746113D01*
X96671983Y-91745096D01*
X96707126Y-91738306D01*
X96785219Y-91725371D01*
X96865026Y-91724142D01*
X96954355Y-91734641D01*
X96979029Y-91739090D01*
X97062091Y-91762508D01*
X97127073Y-91797345D01*
X97173261Y-91843004D01*
X97199945Y-91898894D01*
X97205463Y-91927788D01*
X97201851Y-91986412D01*
X97178529Y-92038279D01*
X97137624Y-92082378D01*
X97081259Y-92117699D01*
X97011560Y-92143229D01*
X96930652Y-92157959D01*
X96840660Y-92160878D01*
X96743710Y-92150975D01*
X96738236Y-92150041D01*
X96699675Y-92142859D01*
X96678294Y-92135921D01*
X96669027Y-92125627D01*
X96666806Y-92108376D01*
X96666756Y-92099241D01*
X96666756Y-92060889D01*
X96735231Y-92060889D01*
X96795700Y-92056747D01*
X96836965Y-92043547D01*
X96860975Y-92020130D01*
X96869677Y-91985336D01*
X96869783Y-91980794D01*
X96864692Y-91951054D01*
X96847233Y-91929819D01*
X96814739Y-91915766D01*
X96764543Y-91907573D01*
X96715923Y-91904561D01*
X96645256Y-91902833D01*
X96593998Y-91905470D01*
X96559039Y-91915200D01*
X96537270Y-91934753D01*
X96525580Y-91966856D01*
X96520860Y-92014238D01*
X96520000Y-92076471D01*
X96521409Y-92145935D01*
X96525648Y-92193186D01*
X96532736Y-92218412D01*
X96534111Y-92220388D01*
X96573028Y-92251908D01*
X96630086Y-92276870D01*
X96701669Y-92294740D01*
X96784158Y-92304986D01*
X96873939Y-92307073D01*
X96967392Y-92300468D01*
X97022356Y-92292356D01*
X97108566Y-92267954D01*
X97188692Y-92228062D01*
X97255777Y-92176287D01*
X97265973Y-92165939D01*
X97299102Y-92122435D01*
X97328994Y-92068518D01*
X97352157Y-92011992D01*
X97365098Y-91960659D01*
X97366658Y-91940944D01*
X97360018Y-91899819D01*
X97342368Y-91848652D01*
X97317097Y-91794794D01*
X97287589Y-91745595D01*
X97261519Y-91712734D01*
X97200565Y-91663852D01*
X97121769Y-91624945D01*
X97027957Y-91596894D01*
X96921950Y-91580579D01*
X96824800Y-91576592D01*
X96742881Y-91580999D01*
G37*
X96742881Y-91580999D02*
X96674365Y-91592495D01*
X96621743Y-91610367D01*
X96587508Y-91633899D01*
X96578179Y-91647324D01*
X96568693Y-91678548D01*
X96575077Y-91706795D01*
X96595230Y-91733582D01*
X96626545Y-91746113D01*
X96671983Y-91745096D01*
X96707126Y-91738306D01*
X96785219Y-91725371D01*
X96865026Y-91724142D01*
X96954355Y-91734641D01*
X96979029Y-91739090D01*
X97062091Y-91762508D01*
X97127073Y-91797345D01*
X97173261Y-91843004D01*
X97199945Y-91898894D01*
X97205463Y-91927788D01*
X97201851Y-91986412D01*
X97178529Y-92038279D01*
X97137624Y-92082378D01*
X97081259Y-92117699D01*
X97011560Y-92143229D01*
X96930652Y-92157959D01*
X96840660Y-92160878D01*
X96743710Y-92150975D01*
X96738236Y-92150041D01*
X96699675Y-92142859D01*
X96678294Y-92135921D01*
X96669027Y-92125627D01*
X96666806Y-92108376D01*
X96666756Y-92099241D01*
X96666756Y-92060889D01*
X96735231Y-92060889D01*
X96795700Y-92056747D01*
X96836965Y-92043547D01*
X96860975Y-92020130D01*
X96869677Y-91985336D01*
X96869783Y-91980794D01*
X96864692Y-91951054D01*
X96847233Y-91929819D01*
X96814739Y-91915766D01*
X96764543Y-91907573D01*
X96715923Y-91904561D01*
X96645256Y-91902833D01*
X96593998Y-91905470D01*
X96559039Y-91915200D01*
X96537270Y-91934753D01*
X96525580Y-91966856D01*
X96520860Y-92014238D01*
X96520000Y-92076471D01*
X96521409Y-92145935D01*
X96525648Y-92193186D01*
X96532736Y-92218412D01*
X96534111Y-92220388D01*
X96573028Y-92251908D01*
X96630086Y-92276870D01*
X96701669Y-92294740D01*
X96784158Y-92304986D01*
X96873939Y-92307073D01*
X96967392Y-92300468D01*
X97022356Y-92292356D01*
X97108566Y-92267954D01*
X97188692Y-92228062D01*
X97255777Y-92176287D01*
X97265973Y-92165939D01*
X97299102Y-92122435D01*
X97328994Y-92068518D01*
X97352157Y-92011992D01*
X97365098Y-91960659D01*
X97366658Y-91940944D01*
X97360018Y-91899819D01*
X97342368Y-91848652D01*
X97317097Y-91794794D01*
X97287589Y-91745595D01*
X97261519Y-91712734D01*
X97200565Y-91663852D01*
X97121769Y-91624945D01*
X97027957Y-91596894D01*
X96921950Y-91580579D01*
X96824800Y-91576592D01*
X96742881Y-91580999D01*
G36*
X97716622Y-91598045D02*
G01*
X97710042Y-91605618D01*
X97704879Y-91615387D01*
X97700964Y-91629971D01*
X97698124Y-91651985D01*
X97696187Y-91684048D01*
X97694983Y-91728775D01*
X97694339Y-91788785D01*
X97694084Y-91866694D01*
X97694045Y-91942356D01*
X97694114Y-92036202D01*
X97694438Y-92110089D01*
X97695186Y-92166632D01*
X97696532Y-92208449D01*
X97698646Y-92238157D01*
X97701700Y-92258373D01*
X97705866Y-92271714D01*
X97711316Y-92280798D01*
X97716622Y-92286667D01*
X97749626Y-92306347D01*
X97784791Y-92304581D01*
X97816255Y-92283117D01*
X97823484Y-92274737D01*
X97829134Y-92265014D01*
X97833399Y-92251261D01*
X97836473Y-92230789D01*
X97838552Y-92200912D01*
X97839830Y-92158941D01*
X97840501Y-92102189D01*
X97840759Y-92027967D01*
X97840800Y-91943937D01*
X97840800Y-91630885D01*
X97813091Y-91603176D01*
X97778937Y-91579863D01*
X97745806Y-91579023D01*
X97716622Y-91598045D01*
G37*
X97716622Y-91598045D02*
X97710042Y-91605618D01*
X97704879Y-91615387D01*
X97700964Y-91629971D01*
X97698124Y-91651985D01*
X97696187Y-91684048D01*
X97694983Y-91728775D01*
X97694339Y-91788785D01*
X97694084Y-91866694D01*
X97694045Y-91942356D01*
X97694114Y-92036202D01*
X97694438Y-92110089D01*
X97695186Y-92166632D01*
X97696532Y-92208449D01*
X97698646Y-92238157D01*
X97701700Y-92258373D01*
X97705866Y-92271714D01*
X97711316Y-92280798D01*
X97716622Y-92286667D01*
X97749626Y-92306347D01*
X97784791Y-92304581D01*
X97816255Y-92283117D01*
X97823484Y-92274737D01*
X97829134Y-92265014D01*
X97833399Y-92251261D01*
X97836473Y-92230789D01*
X97838552Y-92200912D01*
X97839830Y-92158941D01*
X97840501Y-92102189D01*
X97840759Y-92027967D01*
X97840800Y-91943937D01*
X97840800Y-91630885D01*
X97813091Y-91603176D01*
X97778937Y-91579863D01*
X97745806Y-91579023D01*
X97716622Y-91598045D01*
G36*
X98484503Y-91576751D02*
G01*
X98409688Y-91581981D01*
X98340106Y-91590150D01*
X98279802Y-91600950D01*
X98232820Y-91614073D01*
X98203206Y-91629213D01*
X98198660Y-91633669D01*
X98182854Y-91668250D01*
X98187647Y-91703751D01*
X98212164Y-91734125D01*
X98213334Y-91734996D01*
X98227754Y-91744354D01*
X98242808Y-91749276D01*
X98263805Y-91749873D01*
X98296057Y-91746261D01*
X98344873Y-91738554D01*
X98348800Y-91737905D01*
X98421539Y-91728969D01*
X98500017Y-91724561D01*
X98578727Y-91724519D01*
X98652161Y-91728679D01*
X98714811Y-91736879D01*
X98761170Y-91748957D01*
X98764216Y-91750171D01*
X98797848Y-91769015D01*
X98809664Y-91788085D01*
X98800414Y-91806839D01*
X98770847Y-91824737D01*
X98721711Y-91841237D01*
X98653757Y-91855796D01*
X98608445Y-91862806D01*
X98514256Y-91876289D01*
X98439344Y-91888614D01*
X98380517Y-91900849D01*
X98334585Y-91914061D01*
X98298355Y-91929317D01*
X98268638Y-91947685D01*
X98242242Y-91970231D01*
X98221030Y-91992371D01*
X98195865Y-92023219D01*
X98183481Y-92049745D01*
X98179608Y-92082426D01*
X98179467Y-92094395D01*
X98182376Y-92134112D01*
X98194002Y-92163659D01*
X98214123Y-92189886D01*
X98255016Y-92229976D01*
X98300617Y-92260549D01*
X98354313Y-92282603D01*
X98419492Y-92297135D01*
X98499544Y-92305141D01*
X98597857Y-92307618D01*
X98614089Y-92307577D01*
X98679649Y-92306218D01*
X98744666Y-92303130D01*
X98802052Y-92298756D01*
X98844722Y-92293540D01*
X98848172Y-92292941D01*
X98890596Y-92282891D01*
X98926580Y-92270196D01*
X98946950Y-92258590D01*
X98965907Y-92227972D01*
X98967227Y-92192318D01*
X98950885Y-92160544D01*
X98947229Y-92156951D01*
X98932115Y-92146276D01*
X98913215Y-92141676D01*
X98883962Y-92142459D01*
X98848451Y-92146527D01*
X98808770Y-92150162D01*
X98753145Y-92153228D01*
X98688206Y-92155453D01*
X98620585Y-92156564D01*
X98602800Y-92156637D01*
X98534928Y-92156364D01*
X98485254Y-92155046D01*
X98449410Y-92152227D01*
X98423024Y-92147450D01*
X98401726Y-92140257D01*
X98388926Y-92134267D01*
X98360800Y-92117633D01*
X98342868Y-92102568D01*
X98340247Y-92098297D01*
X98345776Y-92080663D01*
X98372060Y-92063592D01*
X98417278Y-92047858D01*
X98479608Y-92034238D01*
X98497971Y-92031204D01*
X98593890Y-92016138D01*
X98670441Y-92003546D01*
X98730580Y-91992511D01*
X98777260Y-91982120D01*
X98813437Y-91971456D01*
X98842065Y-91959605D01*
X98866098Y-91945651D01*
X98888492Y-91928681D01*
X98912202Y-91907778D01*
X98920180Y-91900449D01*
X98948153Y-91873099D01*
X98962960Y-91851429D01*
X98968752Y-91826632D01*
X98969689Y-91795383D01*
X98959375Y-91734105D01*
X98928552Y-91682040D01*
X98877395Y-91639358D01*
X98806083Y-91606225D01*
X98755200Y-91591364D01*
X98699900Y-91581766D01*
X98633653Y-91576336D01*
X98560506Y-91574767D01*
X98484503Y-91576751D01*
G37*
X98484503Y-91576751D02*
X98409688Y-91581981D01*
X98340106Y-91590150D01*
X98279802Y-91600950D01*
X98232820Y-91614073D01*
X98203206Y-91629213D01*
X98198660Y-91633669D01*
X98182854Y-91668250D01*
X98187647Y-91703751D01*
X98212164Y-91734125D01*
X98213334Y-91734996D01*
X98227754Y-91744354D01*
X98242808Y-91749276D01*
X98263805Y-91749873D01*
X98296057Y-91746261D01*
X98344873Y-91738554D01*
X98348800Y-91737905D01*
X98421539Y-91728969D01*
X98500017Y-91724561D01*
X98578727Y-91724519D01*
X98652161Y-91728679D01*
X98714811Y-91736879D01*
X98761170Y-91748957D01*
X98764216Y-91750171D01*
X98797848Y-91769015D01*
X98809664Y-91788085D01*
X98800414Y-91806839D01*
X98770847Y-91824737D01*
X98721711Y-91841237D01*
X98653757Y-91855796D01*
X98608445Y-91862806D01*
X98514256Y-91876289D01*
X98439344Y-91888614D01*
X98380517Y-91900849D01*
X98334585Y-91914061D01*
X98298355Y-91929317D01*
X98268638Y-91947685D01*
X98242242Y-91970231D01*
X98221030Y-91992371D01*
X98195865Y-92023219D01*
X98183481Y-92049745D01*
X98179608Y-92082426D01*
X98179467Y-92094395D01*
X98182376Y-92134112D01*
X98194002Y-92163659D01*
X98214123Y-92189886D01*
X98255016Y-92229976D01*
X98300617Y-92260549D01*
X98354313Y-92282603D01*
X98419492Y-92297135D01*
X98499544Y-92305141D01*
X98597857Y-92307618D01*
X98614089Y-92307577D01*
X98679649Y-92306218D01*
X98744666Y-92303130D01*
X98802052Y-92298756D01*
X98844722Y-92293540D01*
X98848172Y-92292941D01*
X98890596Y-92282891D01*
X98926580Y-92270196D01*
X98946950Y-92258590D01*
X98965907Y-92227972D01*
X98967227Y-92192318D01*
X98950885Y-92160544D01*
X98947229Y-92156951D01*
X98932115Y-92146276D01*
X98913215Y-92141676D01*
X98883962Y-92142459D01*
X98848451Y-92146527D01*
X98808770Y-92150162D01*
X98753145Y-92153228D01*
X98688206Y-92155453D01*
X98620585Y-92156564D01*
X98602800Y-92156637D01*
X98534928Y-92156364D01*
X98485254Y-92155046D01*
X98449410Y-92152227D01*
X98423024Y-92147450D01*
X98401726Y-92140257D01*
X98388926Y-92134267D01*
X98360800Y-92117633D01*
X98342868Y-92102568D01*
X98340247Y-92098297D01*
X98345776Y-92080663D01*
X98372060Y-92063592D01*
X98417278Y-92047858D01*
X98479608Y-92034238D01*
X98497971Y-92031204D01*
X98593890Y-92016138D01*
X98670441Y-92003546D01*
X98730580Y-91992511D01*
X98777260Y-91982120D01*
X98813437Y-91971456D01*
X98842065Y-91959605D01*
X98866098Y-91945651D01*
X98888492Y-91928681D01*
X98912202Y-91907778D01*
X98920180Y-91900449D01*
X98948153Y-91873099D01*
X98962960Y-91851429D01*
X98968752Y-91826632D01*
X98969689Y-91795383D01*
X98959375Y-91734105D01*
X98928552Y-91682040D01*
X98877395Y-91639358D01*
X98806083Y-91606225D01*
X98755200Y-91591364D01*
X98699900Y-91581766D01*
X98633653Y-91576336D01*
X98560506Y-91574767D01*
X98484503Y-91576751D01*
G36*
X99505594Y-91575546D02*
G01*
X99436186Y-91575918D01*
X99383797Y-91576785D01*
X99345647Y-91578346D01*
X99318959Y-91580803D01*
X99300953Y-91584357D01*
X99288849Y-91589210D01*
X99279869Y-91595561D01*
X99276618Y-91598484D01*
X99256843Y-91629542D01*
X99253282Y-91665228D01*
X99266291Y-91696910D01*
X99272306Y-91703313D01*
X99282035Y-91709521D01*
X99297701Y-91714310D01*
X99322208Y-91717914D01*
X99358461Y-91720564D01*
X99409365Y-91722495D01*
X99477826Y-91723939D01*
X99540417Y-91724818D01*
X99788134Y-91727867D01*
X99791519Y-91792778D01*
X99794905Y-91857689D01*
X99626758Y-91857689D01*
X99553759Y-91858319D01*
X99500317Y-91860953D01*
X99463428Y-91866709D01*
X99440088Y-91876704D01*
X99427294Y-91892056D01*
X99422042Y-91913882D01*
X99421245Y-91934138D01*
X99423723Y-91958992D01*
X99433077Y-91977306D01*
X99452183Y-91990037D01*
X99483918Y-91998141D01*
X99531159Y-92002576D01*
X99596783Y-92004299D01*
X99632601Y-92004445D01*
X99793778Y-92004445D01*
X99793778Y-92162489D01*
X99545422Y-92162489D01*
X99464013Y-92162602D01*
X99402142Y-92163112D01*
X99356768Y-92164270D01*
X99324854Y-92166330D01*
X99303359Y-92169546D01*
X99289243Y-92174172D01*
X99279468Y-92180459D01*
X99274489Y-92185067D01*
X99257410Y-92211960D01*
X99251911Y-92235867D01*
X99259763Y-92265067D01*
X99274489Y-92286667D01*
X99282346Y-92293466D01*
X99292488Y-92298746D01*
X99307644Y-92302698D01*
X99330541Y-92305513D01*
X99363909Y-92307382D01*
X99410475Y-92308498D01*
X99472967Y-92309051D01*
X99554114Y-92309233D01*
X99596222Y-92309245D01*
X99686398Y-92309165D01*
X99756724Y-92308798D01*
X99809929Y-92307952D01*
X99848740Y-92306436D01*
X99875887Y-92304059D01*
X99894098Y-92300629D01*
X99906100Y-92295954D01*
X99914622Y-92289844D01*
X99917956Y-92286667D01*
X99924555Y-92279070D01*
X99929727Y-92269270D01*
X99933646Y-92254639D01*
X99936484Y-92232552D01*
X99938415Y-92200382D01*
X99939612Y-92155503D01*
X99940248Y-92095289D01*
X99940497Y-92017113D01*
X99940534Y-91944323D01*
X99940500Y-91851107D01*
X99940265Y-91777831D01*
X99939630Y-91721858D01*
X99938394Y-91680551D01*
X99936356Y-91651272D01*
X99933317Y-91631384D01*
X99929077Y-91618250D01*
X99923435Y-91609232D01*
X99916191Y-91601693D01*
X99914406Y-91600012D01*
X99905745Y-91592572D01*
X99895682Y-91586809D01*
X99881425Y-91582512D01*
X99860183Y-91579464D01*
X99829164Y-91577451D01*
X99785577Y-91576260D01*
X99726631Y-91575675D01*
X99649534Y-91575483D01*
X99594801Y-91575467D01*
X99505594Y-91575546D01*
G37*
X99505594Y-91575546D02*
X99436186Y-91575918D01*
X99383797Y-91576785D01*
X99345647Y-91578346D01*
X99318959Y-91580803D01*
X99300953Y-91584357D01*
X99288849Y-91589210D01*
X99279869Y-91595561D01*
X99276618Y-91598484D01*
X99256843Y-91629542D01*
X99253282Y-91665228D01*
X99266291Y-91696910D01*
X99272306Y-91703313D01*
X99282035Y-91709521D01*
X99297701Y-91714310D01*
X99322208Y-91717914D01*
X99358461Y-91720564D01*
X99409365Y-91722495D01*
X99477826Y-91723939D01*
X99540417Y-91724818D01*
X99788134Y-91727867D01*
X99791519Y-91792778D01*
X99794905Y-91857689D01*
X99626758Y-91857689D01*
X99553759Y-91858319D01*
X99500317Y-91860953D01*
X99463428Y-91866709D01*
X99440088Y-91876704D01*
X99427294Y-91892056D01*
X99422042Y-91913882D01*
X99421245Y-91934138D01*
X99423723Y-91958992D01*
X99433077Y-91977306D01*
X99452183Y-91990037D01*
X99483918Y-91998141D01*
X99531159Y-92002576D01*
X99596783Y-92004299D01*
X99632601Y-92004445D01*
X99793778Y-92004445D01*
X99793778Y-92162489D01*
X99545422Y-92162489D01*
X99464013Y-92162602D01*
X99402142Y-92163112D01*
X99356768Y-92164270D01*
X99324854Y-92166330D01*
X99303359Y-92169546D01*
X99289243Y-92174172D01*
X99279468Y-92180459D01*
X99274489Y-92185067D01*
X99257410Y-92211960D01*
X99251911Y-92235867D01*
X99259763Y-92265067D01*
X99274489Y-92286667D01*
X99282346Y-92293466D01*
X99292488Y-92298746D01*
X99307644Y-92302698D01*
X99330541Y-92305513D01*
X99363909Y-92307382D01*
X99410475Y-92308498D01*
X99472967Y-92309051D01*
X99554114Y-92309233D01*
X99596222Y-92309245D01*
X99686398Y-92309165D01*
X99756724Y-92308798D01*
X99809929Y-92307952D01*
X99848740Y-92306436D01*
X99875887Y-92304059D01*
X99894098Y-92300629D01*
X99906100Y-92295954D01*
X99914622Y-92289844D01*
X99917956Y-92286667D01*
X99924555Y-92279070D01*
X99929727Y-92269270D01*
X99933646Y-92254639D01*
X99936484Y-92232552D01*
X99938415Y-92200382D01*
X99939612Y-92155503D01*
X99940248Y-92095289D01*
X99940497Y-92017113D01*
X99940534Y-91944323D01*
X99940500Y-91851107D01*
X99940265Y-91777831D01*
X99939630Y-91721858D01*
X99938394Y-91680551D01*
X99936356Y-91651272D01*
X99933317Y-91631384D01*
X99929077Y-91618250D01*
X99923435Y-91609232D01*
X99916191Y-91601693D01*
X99914406Y-91600012D01*
X99905745Y-91592572D01*
X99895682Y-91586809D01*
X99881425Y-91582512D01*
X99860183Y-91579464D01*
X99829164Y-91577451D01*
X99785577Y-91576260D01*
X99726631Y-91575675D01*
X99649534Y-91575483D01*
X99594801Y-91575467D01*
X99505594Y-91575546D01*
G36*
X100914171Y-91575466D02*
G01*
X100874689Y-91575867D01*
X100759000Y-91578659D01*
X100662111Y-91586950D01*
X100580719Y-91601632D01*
X100511523Y-91623593D01*
X100451220Y-91653722D01*
X100396508Y-91692910D01*
X100376967Y-91709932D01*
X100344550Y-91749763D01*
X100315320Y-91803813D01*
X100292791Y-91863723D01*
X100280479Y-91921139D01*
X100279200Y-91942356D01*
X100287217Y-92001169D01*
X100308699Y-92065413D01*
X100339799Y-92126221D01*
X100376666Y-92174730D01*
X100382654Y-92180582D01*
X100433379Y-92221721D01*
X100488925Y-92253835D01*
X100552496Y-92277765D01*
X100627294Y-92294353D01*
X100716522Y-92304441D01*
X100823382Y-92308869D01*
X100872328Y-92309245D01*
X100934562Y-92308945D01*
X100978328Y-92307692D01*
X101007731Y-92304954D01*
X101026879Y-92300201D01*
X101039877Y-92292901D01*
X101046845Y-92286667D01*
X101053426Y-92279094D01*
X101058588Y-92269324D01*
X101062503Y-92254740D01*
X101065343Y-92232726D01*
X101067280Y-92200664D01*
X101068484Y-92155936D01*
X101069128Y-92095926D01*
X101069383Y-92018017D01*
X101069422Y-91942356D01*
X101069670Y-91841441D01*
X101069617Y-91760827D01*
X101068657Y-91722222D01*
X100922667Y-91722222D01*
X100922667Y-92162489D01*
X100829534Y-92162404D01*
X100773493Y-92160796D01*
X100714799Y-92156656D01*
X100665828Y-92150864D01*
X100664338Y-92150626D01*
X100585192Y-92131490D01*
X100523802Y-92101687D01*
X100477105Y-92059278D01*
X100447435Y-92013361D01*
X100429153Y-91962426D01*
X100430571Y-91914600D01*
X100451788Y-91863333D01*
X100493289Y-91810299D01*
X100550798Y-91771000D01*
X100625550Y-91744731D01*
X100675508Y-91735435D01*
X100732216Y-91728907D01*
X100792319Y-91724182D01*
X100843439Y-91722217D01*
X100846467Y-91722208D01*
X100922667Y-91722222D01*
X101068657Y-91722222D01*
X101068060Y-91698251D01*
X101063798Y-91651455D01*
X101055630Y-91618178D01*
X101042356Y-91596159D01*
X101022774Y-91583139D01*
X100995683Y-91576857D01*
X100959882Y-91575053D01*
X100914171Y-91575466D01*
G37*
X100914171Y-91575466D02*
X100874689Y-91575867D01*
X100759000Y-91578659D01*
X100662111Y-91586950D01*
X100580719Y-91601632D01*
X100511523Y-91623593D01*
X100451220Y-91653722D01*
X100396508Y-91692910D01*
X100376967Y-91709932D01*
X100344550Y-91749763D01*
X100315320Y-91803813D01*
X100292791Y-91863723D01*
X100280479Y-91921139D01*
X100279200Y-91942356D01*
X100287217Y-92001169D01*
X100308699Y-92065413D01*
X100339799Y-92126221D01*
X100376666Y-92174730D01*
X100382654Y-92180582D01*
X100433379Y-92221721D01*
X100488925Y-92253835D01*
X100552496Y-92277765D01*
X100627294Y-92294353D01*
X100716522Y-92304441D01*
X100823382Y-92308869D01*
X100872328Y-92309245D01*
X100934562Y-92308945D01*
X100978328Y-92307692D01*
X101007731Y-92304954D01*
X101026879Y-92300201D01*
X101039877Y-92292901D01*
X101046845Y-92286667D01*
X101053426Y-92279094D01*
X101058588Y-92269324D01*
X101062503Y-92254740D01*
X101065343Y-92232726D01*
X101067280Y-92200664D01*
X101068484Y-92155936D01*
X101069128Y-92095926D01*
X101069383Y-92018017D01*
X101069422Y-91942356D01*
X101069670Y-91841441D01*
X101069617Y-91760827D01*
X101068657Y-91722222D01*
X100922667Y-91722222D01*
X100922667Y-92162489D01*
X100829534Y-92162404D01*
X100773493Y-92160796D01*
X100714799Y-92156656D01*
X100665828Y-92150864D01*
X100664338Y-92150626D01*
X100585192Y-92131490D01*
X100523802Y-92101687D01*
X100477105Y-92059278D01*
X100447435Y-92013361D01*
X100429153Y-91962426D01*
X100430571Y-91914600D01*
X100451788Y-91863333D01*
X100493289Y-91810299D01*
X100550798Y-91771000D01*
X100625550Y-91744731D01*
X100675508Y-91735435D01*
X100732216Y-91728907D01*
X100792319Y-91724182D01*
X100843439Y-91722217D01*
X100846467Y-91722208D01*
X100922667Y-91722222D01*
X101068657Y-91722222D01*
X101068060Y-91698251D01*
X101063798Y-91651455D01*
X101055630Y-91618178D01*
X101042356Y-91596159D01*
X101022774Y-91583139D01*
X100995683Y-91576857D01*
X100959882Y-91575053D01*
X100914171Y-91575466D01*
G36*
X97065843Y-86332971D02*
G01*
X96969568Y-86357209D01*
X96882984Y-86400041D01*
X96808173Y-86459819D01*
X96747218Y-86534894D01*
X96702199Y-86623620D01*
X96675936Y-86719930D01*
X96670086Y-86817195D01*
X96684940Y-86911054D01*
X96718640Y-86998911D01*
X96769328Y-87078170D01*
X96835145Y-87146236D01*
X96914234Y-87200512D01*
X97004734Y-87238402D01*
X97056000Y-87250826D01*
X97100498Y-87258347D01*
X97134799Y-87261319D01*
X97167760Y-87259494D01*
X97208234Y-87252625D01*
X97241331Y-87245650D01*
X97334747Y-87214141D01*
X97418419Y-87163017D01*
X97490465Y-87093829D01*
X97549000Y-87008128D01*
X97562948Y-86980889D01*
X97579386Y-86944522D01*
X97589694Y-86913982D01*
X97595260Y-86881850D01*
X97597469Y-86840707D01*
X97597748Y-86794622D01*
X97593661Y-86710265D01*
X97580246Y-86640986D01*
X97555056Y-86580361D01*
X97515646Y-86521967D01*
X97477098Y-86477702D01*
X97405206Y-86411884D01*
X97330113Y-86366453D01*
X97247362Y-86339250D01*
X97169728Y-86328976D01*
X97065843Y-86332971D01*
G37*
X97065843Y-86332971D02*
X96969568Y-86357209D01*
X96882984Y-86400041D01*
X96808173Y-86459819D01*
X96747218Y-86534894D01*
X96702199Y-86623620D01*
X96675936Y-86719930D01*
X96670086Y-86817195D01*
X96684940Y-86911054D01*
X96718640Y-86998911D01*
X96769328Y-87078170D01*
X96835145Y-87146236D01*
X96914234Y-87200512D01*
X97004734Y-87238402D01*
X97056000Y-87250826D01*
X97100498Y-87258347D01*
X97134799Y-87261319D01*
X97167760Y-87259494D01*
X97208234Y-87252625D01*
X97241331Y-87245650D01*
X97334747Y-87214141D01*
X97418419Y-87163017D01*
X97490465Y-87093829D01*
X97549000Y-87008128D01*
X97562948Y-86980889D01*
X97579386Y-86944522D01*
X97589694Y-86913982D01*
X97595260Y-86881850D01*
X97597469Y-86840707D01*
X97597748Y-86794622D01*
X97593661Y-86710265D01*
X97580246Y-86640986D01*
X97555056Y-86580361D01*
X97515646Y-86521967D01*
X97477098Y-86477702D01*
X97405206Y-86411884D01*
X97330113Y-86366453D01*
X97247362Y-86339250D01*
X97169728Y-86328976D01*
X97065843Y-86332971D01*
G36*
X88606293Y-88778645D02*
G01*
X88606274Y-89013062D01*
X88606248Y-89226003D01*
X88606175Y-89418568D01*
X88606018Y-89591859D01*
X88605736Y-89746976D01*
X88605291Y-89885020D01*
X88604644Y-90007092D01*
X88603755Y-90114294D01*
X88602587Y-90207726D01*
X88601099Y-90288490D01*
X88599254Y-90357686D01*
X88597011Y-90416415D01*
X88594331Y-90465779D01*
X88591177Y-90506878D01*
X88587508Y-90540813D01*
X88583287Y-90568686D01*
X88578473Y-90591598D01*
X88573027Y-90610649D01*
X88566912Y-90626940D01*
X88560088Y-90641573D01*
X88552515Y-90655649D01*
X88544155Y-90670268D01*
X88538961Y-90679374D01*
X88504696Y-90740089D01*
X89362845Y-90740089D01*
X89362845Y-90644133D01*
X89363576Y-90600770D01*
X89365528Y-90567605D01*
X89368337Y-90549824D01*
X89369579Y-90548178D01*
X89381001Y-90555062D01*
X89403716Y-90572905D01*
X89426415Y-90592279D01*
X89481000Y-90633014D01*
X89550479Y-90674017D01*
X89627530Y-90711523D01*
X89704835Y-90741764D01*
X89735687Y-90751412D01*
X89804184Y-90765978D01*
X89887036Y-90775939D01*
X89976429Y-90780983D01*
X90064552Y-90780796D01*
X90143593Y-90775066D01*
X90181289Y-90769258D01*
X90319386Y-90731197D01*
X90446687Y-90673473D01*
X90562508Y-90596611D01*
X90666163Y-90501139D01*
X90756967Y-90387579D01*
X90823769Y-90276781D01*
X90878636Y-90160025D01*
X90920637Y-90040676D01*
X90950633Y-89914683D01*
X90969489Y-89777994D01*
X90978068Y-89626558D01*
X90978794Y-89549111D01*
X90976700Y-89492334D01*
X90147583Y-89492334D01*
X90147376Y-89585402D01*
X90144463Y-89673092D01*
X90138800Y-89750172D01*
X90130345Y-89811409D01*
X90127762Y-89823750D01*
X90095960Y-89931033D01*
X90054302Y-90018058D01*
X90002437Y-90085042D01*
X89940019Y-90132205D01*
X89866700Y-90159765D01*
X89782131Y-90167941D01*
X89685965Y-90156951D01*
X89622489Y-90141229D01*
X89573346Y-90123039D01*
X89519217Y-90097191D01*
X89478556Y-90073489D01*
X89408000Y-90027121D01*
X89408000Y-88876930D01*
X89475408Y-88833362D01*
X89553933Y-88792440D01*
X89638119Y-88765789D01*
X89723243Y-88753865D01*
X89804584Y-88757122D01*
X89877420Y-88776015D01*
X89909374Y-88791584D01*
X89967299Y-88834581D01*
X90016256Y-88891353D01*
X90057410Y-88963975D01*
X90091926Y-89054521D01*
X90120967Y-89165066D01*
X90122248Y-89170933D01*
X90132419Y-89233188D01*
X90140061Y-89310994D01*
X90145130Y-89399120D01*
X90147583Y-89492334D01*
X90976700Y-89492334D01*
X90970943Y-89336295D01*
X90948998Y-89140459D01*
X90913014Y-88961732D01*
X90863041Y-88800245D01*
X90799132Y-88656126D01*
X90721338Y-88529506D01*
X90629711Y-88420515D01*
X90524303Y-88329283D01*
X90479138Y-88298332D01*
X90378189Y-88242185D01*
X90274899Y-88202574D01*
X90164811Y-88178414D01*
X90043470Y-88168619D01*
X89950964Y-88169665D01*
X89821310Y-88180631D01*
X89708716Y-88202446D01*
X89609925Y-88236114D01*
X89521679Y-88282636D01*
X89472814Y-88316848D01*
X89443447Y-88338762D01*
X89421757Y-88353733D01*
X89413547Y-88358133D01*
X89411932Y-88347304D01*
X89410641Y-88316651D01*
X89409662Y-88268926D01*
X89408983Y-88206879D01*
X89408590Y-88133262D01*
X89408470Y-88050827D01*
X89408612Y-87962325D01*
X89409003Y-87870507D01*
X89409629Y-87778124D01*
X89410480Y-87687928D01*
X89411540Y-87602671D01*
X89412799Y-87525103D01*
X89414244Y-87457976D01*
X89415862Y-87404041D01*
X89417639Y-87366050D01*
X89418131Y-87359067D01*
X89425708Y-87288651D01*
X89437269Y-87233502D01*
X89455008Y-87186381D01*
X89481118Y-87140047D01*
X89487385Y-87130467D01*
X89511817Y-87093778D01*
X88606489Y-87093778D01*
X88606293Y-88778645D01*
G37*
X88606293Y-88778645D02*
X88606274Y-89013062D01*
X88606248Y-89226003D01*
X88606175Y-89418568D01*
X88606018Y-89591859D01*
X88605736Y-89746976D01*
X88605291Y-89885020D01*
X88604644Y-90007092D01*
X88603755Y-90114294D01*
X88602587Y-90207726D01*
X88601099Y-90288490D01*
X88599254Y-90357686D01*
X88597011Y-90416415D01*
X88594331Y-90465779D01*
X88591177Y-90506878D01*
X88587508Y-90540813D01*
X88583287Y-90568686D01*
X88578473Y-90591598D01*
X88573027Y-90610649D01*
X88566912Y-90626940D01*
X88560088Y-90641573D01*
X88552515Y-90655649D01*
X88544155Y-90670268D01*
X88538961Y-90679374D01*
X88504696Y-90740089D01*
X89362845Y-90740089D01*
X89362845Y-90644133D01*
X89363576Y-90600770D01*
X89365528Y-90567605D01*
X89368337Y-90549824D01*
X89369579Y-90548178D01*
X89381001Y-90555062D01*
X89403716Y-90572905D01*
X89426415Y-90592279D01*
X89481000Y-90633014D01*
X89550479Y-90674017D01*
X89627530Y-90711523D01*
X89704835Y-90741764D01*
X89735687Y-90751412D01*
X89804184Y-90765978D01*
X89887036Y-90775939D01*
X89976429Y-90780983D01*
X90064552Y-90780796D01*
X90143593Y-90775066D01*
X90181289Y-90769258D01*
X90319386Y-90731197D01*
X90446687Y-90673473D01*
X90562508Y-90596611D01*
X90666163Y-90501139D01*
X90756967Y-90387579D01*
X90823769Y-90276781D01*
X90878636Y-90160025D01*
X90920637Y-90040676D01*
X90950633Y-89914683D01*
X90969489Y-89777994D01*
X90978068Y-89626558D01*
X90978794Y-89549111D01*
X90976700Y-89492334D01*
X90147583Y-89492334D01*
X90147376Y-89585402D01*
X90144463Y-89673092D01*
X90138800Y-89750172D01*
X90130345Y-89811409D01*
X90127762Y-89823750D01*
X90095960Y-89931033D01*
X90054302Y-90018058D01*
X90002437Y-90085042D01*
X89940019Y-90132205D01*
X89866700Y-90159765D01*
X89782131Y-90167941D01*
X89685965Y-90156951D01*
X89622489Y-90141229D01*
X89573346Y-90123039D01*
X89519217Y-90097191D01*
X89478556Y-90073489D01*
X89408000Y-90027121D01*
X89408000Y-88876930D01*
X89475408Y-88833362D01*
X89553933Y-88792440D01*
X89638119Y-88765789D01*
X89723243Y-88753865D01*
X89804584Y-88757122D01*
X89877420Y-88776015D01*
X89909374Y-88791584D01*
X89967299Y-88834581D01*
X90016256Y-88891353D01*
X90057410Y-88963975D01*
X90091926Y-89054521D01*
X90120967Y-89165066D01*
X90122248Y-89170933D01*
X90132419Y-89233188D01*
X90140061Y-89310994D01*
X90145130Y-89399120D01*
X90147583Y-89492334D01*
X90976700Y-89492334D01*
X90970943Y-89336295D01*
X90948998Y-89140459D01*
X90913014Y-88961732D01*
X90863041Y-88800245D01*
X90799132Y-88656126D01*
X90721338Y-88529506D01*
X90629711Y-88420515D01*
X90524303Y-88329283D01*
X90479138Y-88298332D01*
X90378189Y-88242185D01*
X90274899Y-88202574D01*
X90164811Y-88178414D01*
X90043470Y-88168619D01*
X89950964Y-88169665D01*
X89821310Y-88180631D01*
X89708716Y-88202446D01*
X89609925Y-88236114D01*
X89521679Y-88282636D01*
X89472814Y-88316848D01*
X89443447Y-88338762D01*
X89421757Y-88353733D01*
X89413547Y-88358133D01*
X89411932Y-88347304D01*
X89410641Y-88316651D01*
X89409662Y-88268926D01*
X89408983Y-88206879D01*
X89408590Y-88133262D01*
X89408470Y-88050827D01*
X89408612Y-87962325D01*
X89409003Y-87870507D01*
X89409629Y-87778124D01*
X89410480Y-87687928D01*
X89411540Y-87602671D01*
X89412799Y-87525103D01*
X89414244Y-87457976D01*
X89415862Y-87404041D01*
X89417639Y-87366050D01*
X89418131Y-87359067D01*
X89425708Y-87288651D01*
X89437269Y-87233502D01*
X89455008Y-87186381D01*
X89481118Y-87140047D01*
X89487385Y-87130467D01*
X89511817Y-87093778D01*
X88606489Y-87093778D01*
X88606293Y-88778645D01*
G36*
X92119226Y-88172952D02*
G01*
X91967308Y-88192967D01*
X91832044Y-88226602D01*
X91712561Y-88274125D01*
X91607985Y-88335805D01*
X91530376Y-88399365D01*
X91461535Y-88473499D01*
X91407794Y-88553271D01*
X91364890Y-88645491D01*
X91349416Y-88688561D01*
X91336556Y-88727542D01*
X91325354Y-88763689D01*
X91315680Y-88798834D01*
X91307404Y-88834810D01*
X91300397Y-88873450D01*
X91294528Y-88916585D01*
X91289669Y-88966049D01*
X91285690Y-89023673D01*
X91282460Y-89091291D01*
X91279851Y-89170734D01*
X91277733Y-89263836D01*
X91275976Y-89372427D01*
X91274451Y-89498342D01*
X91273028Y-89643412D01*
X91271775Y-89786178D01*
X91270449Y-89942368D01*
X91269244Y-90077639D01*
X91268034Y-90193646D01*
X91266694Y-90292045D01*
X91265100Y-90374493D01*
X91263125Y-90442646D01*
X91260644Y-90498160D01*
X91257531Y-90542692D01*
X91253662Y-90577898D01*
X91248911Y-90605434D01*
X91243152Y-90626956D01*
X91236261Y-90644122D01*
X91228111Y-90658586D01*
X91218577Y-90672006D01*
X91207534Y-90686038D01*
X91203234Y-90691471D01*
X91187414Y-90714310D01*
X91180378Y-90729863D01*
X91180356Y-90730322D01*
X91191233Y-90732521D01*
X91222218Y-90734547D01*
X91270843Y-90736342D01*
X91334637Y-90737851D01*
X91411131Y-90739016D01*
X91497856Y-90739780D01*
X91592343Y-90740086D01*
X91603250Y-90740089D01*
X92026143Y-90740089D01*
X92029405Y-90644022D01*
X92032667Y-90547956D01*
X92094756Y-90598943D01*
X92192086Y-90666457D01*
X92301987Y-90721149D01*
X92388451Y-90751378D01*
X92457522Y-90766066D01*
X92540875Y-90776059D01*
X92630641Y-90781046D01*
X92718955Y-90780713D01*
X92797949Y-90774751D01*
X92834178Y-90769038D01*
X92974197Y-90731176D01*
X93100622Y-90676332D01*
X93212540Y-90605324D01*
X93309038Y-90518968D01*
X93389200Y-90418079D01*
X93452113Y-90303476D01*
X93496488Y-90177384D01*
X93508822Y-90120801D01*
X93516432Y-90058602D01*
X93520061Y-89983763D01*
X93520555Y-89949867D01*
X93520490Y-89946682D01*
X92760552Y-89946682D01*
X92751259Y-90021733D01*
X92723072Y-90085560D01*
X92674603Y-90141198D01*
X92669546Y-90145611D01*
X92621252Y-90180437D01*
X92569543Y-90203020D01*
X92508811Y-90214940D01*
X92433448Y-90217783D01*
X92415341Y-90217378D01*
X92361522Y-90214725D01*
X92321492Y-90209309D01*
X92286476Y-90199145D01*
X92247697Y-90182250D01*
X92237055Y-90177072D01*
X92176404Y-90141244D01*
X92129585Y-90098612D01*
X92116848Y-90083373D01*
X92072178Y-90026862D01*
X92072178Y-89830986D01*
X92072714Y-89752339D01*
X92074404Y-89694388D01*
X92077372Y-89655275D01*
X92081743Y-89633141D01*
X92085828Y-89626674D01*
X92101753Y-89623511D01*
X92135536Y-89620888D01*
X92182460Y-89619055D01*
X92237807Y-89618257D01*
X92246694Y-89618242D01*
X92367470Y-89623496D01*
X92470140Y-89639663D01*
X92556694Y-89667361D01*
X92629119Y-89707208D01*
X92684049Y-89754158D01*
X92728596Y-89812045D01*
X92753320Y-89875093D01*
X92760552Y-89946682D01*
X93520490Y-89946682D01*
X93518622Y-89856112D01*
X93510278Y-89777212D01*
X93494032Y-89705990D01*
X93468395Y-89635264D01*
X93444399Y-89582893D01*
X93385780Y-89487596D01*
X93307683Y-89399570D01*
X93212485Y-89320417D01*
X93102562Y-89251740D01*
X92980290Y-89195141D01*
X92848045Y-89152221D01*
X92783378Y-89137282D01*
X92647196Y-89115177D01*
X92498751Y-89100594D01*
X92347295Y-89094213D01*
X92220736Y-89095845D01*
X92058850Y-89102624D01*
X92066270Y-89043645D01*
X92085562Y-88944492D01*
X92116696Y-88863772D01*
X92160531Y-88800866D01*
X92217929Y-88755156D01*
X92289752Y-88726022D01*
X92376859Y-88712847D01*
X92480114Y-88715011D01*
X92518089Y-88719012D01*
X92659280Y-88744180D01*
X92796093Y-88785214D01*
X92890622Y-88823215D01*
X92935782Y-88842590D01*
X92974215Y-88858160D01*
X93000566Y-88867805D01*
X93008254Y-88869852D01*
X93017998Y-88860774D01*
X93034717Y-88831805D01*
X93058568Y-88782617D01*
X93089707Y-88712884D01*
X93128293Y-88622279D01*
X93134890Y-88606489D01*
X93164947Y-88534172D01*
X93191926Y-88468825D01*
X93214664Y-88413306D01*
X93231994Y-88370472D01*
X93242752Y-88343181D01*
X93245859Y-88334342D01*
X93235860Y-88329587D01*
X93209583Y-88324310D01*
X93181311Y-88320631D01*
X93151154Y-88315874D01*
X93103367Y-88306428D01*
X93042188Y-88293220D01*
X92971854Y-88277176D01*
X92896606Y-88259220D01*
X92868045Y-88252197D01*
X92762984Y-88226609D01*
X92675320Y-88206547D01*
X92600732Y-88191369D01*
X92534897Y-88180435D01*
X92473493Y-88173104D01*
X92412198Y-88168735D01*
X92346690Y-88166687D01*
X92288672Y-88166289D01*
X92119226Y-88172952D01*
G37*
X92119226Y-88172952D02*
X91967308Y-88192967D01*
X91832044Y-88226602D01*
X91712561Y-88274125D01*
X91607985Y-88335805D01*
X91530376Y-88399365D01*
X91461535Y-88473499D01*
X91407794Y-88553271D01*
X91364890Y-88645491D01*
X91349416Y-88688561D01*
X91336556Y-88727542D01*
X91325354Y-88763689D01*
X91315680Y-88798834D01*
X91307404Y-88834810D01*
X91300397Y-88873450D01*
X91294528Y-88916585D01*
X91289669Y-88966049D01*
X91285690Y-89023673D01*
X91282460Y-89091291D01*
X91279851Y-89170734D01*
X91277733Y-89263836D01*
X91275976Y-89372427D01*
X91274451Y-89498342D01*
X91273028Y-89643412D01*
X91271775Y-89786178D01*
X91270449Y-89942368D01*
X91269244Y-90077639D01*
X91268034Y-90193646D01*
X91266694Y-90292045D01*
X91265100Y-90374493D01*
X91263125Y-90442646D01*
X91260644Y-90498160D01*
X91257531Y-90542692D01*
X91253662Y-90577898D01*
X91248911Y-90605434D01*
X91243152Y-90626956D01*
X91236261Y-90644122D01*
X91228111Y-90658586D01*
X91218577Y-90672006D01*
X91207534Y-90686038D01*
X91203234Y-90691471D01*
X91187414Y-90714310D01*
X91180378Y-90729863D01*
X91180356Y-90730322D01*
X91191233Y-90732521D01*
X91222218Y-90734547D01*
X91270843Y-90736342D01*
X91334637Y-90737851D01*
X91411131Y-90739016D01*
X91497856Y-90739780D01*
X91592343Y-90740086D01*
X91603250Y-90740089D01*
X92026143Y-90740089D01*
X92029405Y-90644022D01*
X92032667Y-90547956D01*
X92094756Y-90598943D01*
X92192086Y-90666457D01*
X92301987Y-90721149D01*
X92388451Y-90751378D01*
X92457522Y-90766066D01*
X92540875Y-90776059D01*
X92630641Y-90781046D01*
X92718955Y-90780713D01*
X92797949Y-90774751D01*
X92834178Y-90769038D01*
X92974197Y-90731176D01*
X93100622Y-90676332D01*
X93212540Y-90605324D01*
X93309038Y-90518968D01*
X93389200Y-90418079D01*
X93452113Y-90303476D01*
X93496488Y-90177384D01*
X93508822Y-90120801D01*
X93516432Y-90058602D01*
X93520061Y-89983763D01*
X93520555Y-89949867D01*
X93520490Y-89946682D01*
X92760552Y-89946682D01*
X92751259Y-90021733D01*
X92723072Y-90085560D01*
X92674603Y-90141198D01*
X92669546Y-90145611D01*
X92621252Y-90180437D01*
X92569543Y-90203020D01*
X92508811Y-90214940D01*
X92433448Y-90217783D01*
X92415341Y-90217378D01*
X92361522Y-90214725D01*
X92321492Y-90209309D01*
X92286476Y-90199145D01*
X92247697Y-90182250D01*
X92237055Y-90177072D01*
X92176404Y-90141244D01*
X92129585Y-90098612D01*
X92116848Y-90083373D01*
X92072178Y-90026862D01*
X92072178Y-89830986D01*
X92072714Y-89752339D01*
X92074404Y-89694388D01*
X92077372Y-89655275D01*
X92081743Y-89633141D01*
X92085828Y-89626674D01*
X92101753Y-89623511D01*
X92135536Y-89620888D01*
X92182460Y-89619055D01*
X92237807Y-89618257D01*
X92246694Y-89618242D01*
X92367470Y-89623496D01*
X92470140Y-89639663D01*
X92556694Y-89667361D01*
X92629119Y-89707208D01*
X92684049Y-89754158D01*
X92728596Y-89812045D01*
X92753320Y-89875093D01*
X92760552Y-89946682D01*
X93520490Y-89946682D01*
X93518622Y-89856112D01*
X93510278Y-89777212D01*
X93494032Y-89705990D01*
X93468395Y-89635264D01*
X93444399Y-89582893D01*
X93385780Y-89487596D01*
X93307683Y-89399570D01*
X93212485Y-89320417D01*
X93102562Y-89251740D01*
X92980290Y-89195141D01*
X92848045Y-89152221D01*
X92783378Y-89137282D01*
X92647196Y-89115177D01*
X92498751Y-89100594D01*
X92347295Y-89094213D01*
X92220736Y-89095845D01*
X92058850Y-89102624D01*
X92066270Y-89043645D01*
X92085562Y-88944492D01*
X92116696Y-88863772D01*
X92160531Y-88800866D01*
X92217929Y-88755156D01*
X92289752Y-88726022D01*
X92376859Y-88712847D01*
X92480114Y-88715011D01*
X92518089Y-88719012D01*
X92659280Y-88744180D01*
X92796093Y-88785214D01*
X92890622Y-88823215D01*
X92935782Y-88842590D01*
X92974215Y-88858160D01*
X93000566Y-88867805D01*
X93008254Y-88869852D01*
X93017998Y-88860774D01*
X93034717Y-88831805D01*
X93058568Y-88782617D01*
X93089707Y-88712884D01*
X93128293Y-88622279D01*
X93134890Y-88606489D01*
X93164947Y-88534172D01*
X93191926Y-88468825D01*
X93214664Y-88413306D01*
X93231994Y-88370472D01*
X93242752Y-88343181D01*
X93245859Y-88334342D01*
X93235860Y-88329587D01*
X93209583Y-88324310D01*
X93181311Y-88320631D01*
X93151154Y-88315874D01*
X93103367Y-88306428D01*
X93042188Y-88293220D01*
X92971854Y-88277176D01*
X92896606Y-88259220D01*
X92868045Y-88252197D01*
X92762984Y-88226609D01*
X92675320Y-88206547D01*
X92600732Y-88191369D01*
X92534897Y-88180435D01*
X92473493Y-88173104D01*
X92412198Y-88168735D01*
X92346690Y-88166687D01*
X92288672Y-88166289D01*
X92119226Y-88172952D01*
G36*
X94464371Y-87255471D02*
G01*
X94304230Y-87276645D01*
X94140290Y-87316785D01*
X93970487Y-87376289D01*
X93792757Y-87455554D01*
X93781490Y-87461099D01*
X93723795Y-87489125D01*
X93672248Y-87513202D01*
X93630609Y-87531649D01*
X93602638Y-87542786D01*
X93593067Y-87545333D01*
X93573850Y-87550341D01*
X93569239Y-87554547D01*
X93574342Y-87564980D01*
X93590382Y-87591268D01*
X93615512Y-87630657D01*
X93647886Y-87680391D01*
X93685657Y-87737715D01*
X93726978Y-87799876D01*
X93770002Y-87864118D01*
X93812883Y-87927685D01*
X93853774Y-87987825D01*
X93890829Y-88041780D01*
X93922200Y-88086797D01*
X93946041Y-88120121D01*
X93960506Y-88138997D01*
X93962491Y-88141187D01*
X93972609Y-88136538D01*
X93994950Y-88119362D01*
X94025520Y-88092840D01*
X94041264Y-88078364D01*
X94137753Y-88003082D01*
X94244464Y-87947641D01*
X94359968Y-87912541D01*
X94482838Y-87898280D01*
X94552239Y-87899451D01*
X94673377Y-87916612D01*
X94782595Y-87952494D01*
X94880218Y-88007359D01*
X94966572Y-88081470D01*
X95041985Y-88175088D01*
X95106782Y-88288476D01*
X95144199Y-88375067D01*
X95188052Y-88510766D01*
X95220372Y-88658250D01*
X95241243Y-88813714D01*
X95250749Y-88973356D01*
X95248973Y-89133373D01*
X95235997Y-89289961D01*
X95211906Y-89439318D01*
X95176782Y-89577640D01*
X95130708Y-89701124D01*
X95114427Y-89735378D01*
X95046180Y-89849464D01*
X94965721Y-89945957D01*
X94874230Y-90024070D01*
X94772889Y-90083017D01*
X94662880Y-90122012D01*
X94545385Y-90140268D01*
X94503917Y-90141611D01*
X94382359Y-90130690D01*
X94261922Y-90097874D01*
X94144134Y-90043839D01*
X94030523Y-89969265D01*
X93939115Y-89890939D01*
X93892585Y-89846408D01*
X93711317Y-90143671D01*
X93666220Y-90217833D01*
X93624981Y-90286046D01*
X93589065Y-90345859D01*
X93559934Y-90394820D01*
X93539050Y-90430479D01*
X93527876Y-90450384D01*
X93526425Y-90453479D01*
X93534654Y-90463118D01*
X93560233Y-90480399D01*
X93599927Y-90503683D01*
X93650503Y-90531334D01*
X93708726Y-90561715D01*
X93771363Y-90593190D01*
X93835179Y-90624122D01*
X93896940Y-90652873D01*
X93953412Y-90677808D01*
X94001362Y-90697289D01*
X94024814Y-90705718D01*
X94158579Y-90743533D01*
X94296473Y-90768536D01*
X94444178Y-90781540D01*
X94570967Y-90783868D01*
X94638922Y-90782773D01*
X94704523Y-90780675D01*
X94761953Y-90777834D01*
X94805397Y-90774506D01*
X94819502Y-90772822D01*
X94958516Y-90743987D01*
X95100043Y-90698868D01*
X95237525Y-90640150D01*
X95364406Y-90570520D01*
X95441911Y-90517841D01*
X95569319Y-90409639D01*
X95687622Y-90283071D01*
X95794628Y-90141266D01*
X95888148Y-89987351D01*
X95965990Y-89824453D01*
X96009844Y-89707156D01*
X96060092Y-89523528D01*
X96093591Y-89328981D01*
X96110351Y-89127725D01*
X96110384Y-88923968D01*
X96093699Y-88721921D01*
X96060307Y-88525792D01*
X96010220Y-88339791D01*
X96006403Y-88328203D01*
X95943519Y-88166150D01*
X95866772Y-88018232D01*
X95773558Y-87880265D01*
X95661273Y-87748061D01*
X95617408Y-87702799D01*
X95481266Y-87578857D01*
X95341309Y-87476315D01*
X95195389Y-87394056D01*
X95041358Y-87330964D01*
X94877068Y-87285923D01*
X94781511Y-87268433D01*
X94622777Y-87252866D01*
X94464371Y-87255471D01*
G37*
X94464371Y-87255471D02*
X94304230Y-87276645D01*
X94140290Y-87316785D01*
X93970487Y-87376289D01*
X93792757Y-87455554D01*
X93781490Y-87461099D01*
X93723795Y-87489125D01*
X93672248Y-87513202D01*
X93630609Y-87531649D01*
X93602638Y-87542786D01*
X93593067Y-87545333D01*
X93573850Y-87550341D01*
X93569239Y-87554547D01*
X93574342Y-87564980D01*
X93590382Y-87591268D01*
X93615512Y-87630657D01*
X93647886Y-87680391D01*
X93685657Y-87737715D01*
X93726978Y-87799876D01*
X93770002Y-87864118D01*
X93812883Y-87927685D01*
X93853774Y-87987825D01*
X93890829Y-88041780D01*
X93922200Y-88086797D01*
X93946041Y-88120121D01*
X93960506Y-88138997D01*
X93962491Y-88141187D01*
X93972609Y-88136538D01*
X93994950Y-88119362D01*
X94025520Y-88092840D01*
X94041264Y-88078364D01*
X94137753Y-88003082D01*
X94244464Y-87947641D01*
X94359968Y-87912541D01*
X94482838Y-87898280D01*
X94552239Y-87899451D01*
X94673377Y-87916612D01*
X94782595Y-87952494D01*
X94880218Y-88007359D01*
X94966572Y-88081470D01*
X95041985Y-88175088D01*
X95106782Y-88288476D01*
X95144199Y-88375067D01*
X95188052Y-88510766D01*
X95220372Y-88658250D01*
X95241243Y-88813714D01*
X95250749Y-88973356D01*
X95248973Y-89133373D01*
X95235997Y-89289961D01*
X95211906Y-89439318D01*
X95176782Y-89577640D01*
X95130708Y-89701124D01*
X95114427Y-89735378D01*
X95046180Y-89849464D01*
X94965721Y-89945957D01*
X94874230Y-90024070D01*
X94772889Y-90083017D01*
X94662880Y-90122012D01*
X94545385Y-90140268D01*
X94503917Y-90141611D01*
X94382359Y-90130690D01*
X94261922Y-90097874D01*
X94144134Y-90043839D01*
X94030523Y-89969265D01*
X93939115Y-89890939D01*
X93892585Y-89846408D01*
X93711317Y-90143671D01*
X93666220Y-90217833D01*
X93624981Y-90286046D01*
X93589065Y-90345859D01*
X93559934Y-90394820D01*
X93539050Y-90430479D01*
X93527876Y-90450384D01*
X93526425Y-90453479D01*
X93534654Y-90463118D01*
X93560233Y-90480399D01*
X93599927Y-90503683D01*
X93650503Y-90531334D01*
X93708726Y-90561715D01*
X93771363Y-90593190D01*
X93835179Y-90624122D01*
X93896940Y-90652873D01*
X93953412Y-90677808D01*
X94001362Y-90697289D01*
X94024814Y-90705718D01*
X94158579Y-90743533D01*
X94296473Y-90768536D01*
X94444178Y-90781540D01*
X94570967Y-90783868D01*
X94638922Y-90782773D01*
X94704523Y-90780675D01*
X94761953Y-90777834D01*
X94805397Y-90774506D01*
X94819502Y-90772822D01*
X94958516Y-90743987D01*
X95100043Y-90698868D01*
X95237525Y-90640150D01*
X95364406Y-90570520D01*
X95441911Y-90517841D01*
X95569319Y-90409639D01*
X95687622Y-90283071D01*
X95794628Y-90141266D01*
X95888148Y-89987351D01*
X95965990Y-89824453D01*
X96009844Y-89707156D01*
X96060092Y-89523528D01*
X96093591Y-89328981D01*
X96110351Y-89127725D01*
X96110384Y-88923968D01*
X96093699Y-88721921D01*
X96060307Y-88525792D01*
X96010220Y-88339791D01*
X96006403Y-88328203D01*
X95943519Y-88166150D01*
X95866772Y-88018232D01*
X95773558Y-87880265D01*
X95661273Y-87748061D01*
X95617408Y-87702799D01*
X95481266Y-87578857D01*
X95341309Y-87476315D01*
X95195389Y-87394056D01*
X95041358Y-87330964D01*
X94877068Y-87285923D01*
X94781511Y-87268433D01*
X94622777Y-87252866D01*
X94464371Y-87255471D01*
G36*
X97739200Y-86795454D02*
G01*
X97728335Y-86909393D01*
X97696718Y-87017016D01*
X97645815Y-87116015D01*
X97577093Y-87204084D01*
X97492019Y-87278916D01*
X97395032Y-87336784D01*
X97288764Y-87376405D01*
X97181750Y-87394973D01*
X97076100Y-87393834D01*
X96973925Y-87374330D01*
X96877334Y-87337806D01*
X96788438Y-87285605D01*
X96709346Y-87219073D01*
X96642169Y-87139552D01*
X96589017Y-87048387D01*
X96551999Y-86946923D01*
X96533227Y-86836502D01*
X96531289Y-86786606D01*
X96531289Y-86698667D01*
X96479360Y-86698667D01*
X96443053Y-86701511D01*
X96416155Y-86713311D01*
X96389049Y-86737049D01*
X96350667Y-86775431D01*
X96350667Y-88967002D01*
X96350676Y-89229139D01*
X96350708Y-89469641D01*
X96350772Y-89689448D01*
X96350876Y-89889501D01*
X96351027Y-90070744D01*
X96351234Y-90234116D01*
X96351506Y-90380560D01*
X96351850Y-90511017D01*
X96352274Y-90626429D01*
X96352787Y-90727738D01*
X96353397Y-90815884D01*
X96354112Y-90891810D01*
X96354940Y-90956457D01*
X96355889Y-91010767D01*
X96356967Y-91055680D01*
X96358183Y-91092140D01*
X96359545Y-91121087D01*
X96361061Y-91143463D01*
X96362738Y-91160209D01*
X96364586Y-91172268D01*
X96366613Y-91180580D01*
X96368825Y-91186087D01*
X96369908Y-91187937D01*
X96374071Y-91194949D01*
X96377605Y-91201396D01*
X96381435Y-91207300D01*
X96386482Y-91212686D01*
X96393671Y-91217578D01*
X96403923Y-91221998D01*
X96418164Y-91225972D01*
X96437314Y-91229521D01*
X96462299Y-91232670D01*
X96494040Y-91235442D01*
X96533462Y-91237861D01*
X96581486Y-91239951D01*
X96639037Y-91241735D01*
X96707037Y-91243237D01*
X96786410Y-91244480D01*
X96878079Y-91245489D01*
X96982966Y-91246285D01*
X97101996Y-91246894D01*
X97236090Y-91247339D01*
X97386173Y-91247643D01*
X97553167Y-91247830D01*
X97737996Y-91247924D01*
X97941583Y-91247948D01*
X98164850Y-91247925D01*
X98408722Y-91247880D01*
X98674121Y-91247837D01*
X98712504Y-91247832D01*
X98979482Y-91247789D01*
X99224802Y-91247718D01*
X99449383Y-91247613D01*
X99654145Y-91247466D01*
X99840006Y-91247269D01*
X100007888Y-91247016D01*
X100158708Y-91246700D01*
X100293387Y-91246313D01*
X100412844Y-91245847D01*
X100517999Y-91245297D01*
X100609771Y-91244653D01*
X100689079Y-91243911D01*
X100756843Y-91243061D01*
X100813982Y-91242097D01*
X100861417Y-91241011D01*
X100900066Y-91239797D01*
X100930849Y-91238447D01*
X100954685Y-91236955D01*
X100972494Y-91235311D01*
X100985195Y-91233511D01*
X100993708Y-91231545D01*
X100998066Y-91229877D01*
X101006528Y-91226306D01*
X101014297Y-91223670D01*
X101021402Y-91221034D01*
X101027873Y-91217462D01*
X101033739Y-91212021D01*
X101039029Y-91203775D01*
X101043774Y-91191790D01*
X101048002Y-91175131D01*
X101051743Y-91152863D01*
X101055027Y-91124052D01*
X101057883Y-91087763D01*
X101060340Y-91043061D01*
X101062429Y-90989011D01*
X101064178Y-90924679D01*
X101065617Y-90849130D01*
X101066776Y-90761430D01*
X101067683Y-90660643D01*
X101068369Y-90545834D01*
X101068863Y-90416070D01*
X101069195Y-90270415D01*
X101069393Y-90107935D01*
X101069487Y-89927695D01*
X101069508Y-89728760D01*
X101069485Y-89510196D01*
X101069446Y-89271068D01*
X101069422Y-89010440D01*
X101069422Y-88968289D01*
X101069436Y-88705392D01*
X101069461Y-88464132D01*
X101069471Y-88243565D01*
X101069442Y-88042752D01*
X101069348Y-87860749D01*
X101069162Y-87696616D01*
X101068859Y-87549411D01*
X101068414Y-87418192D01*
X101067834Y-87308267D01*
X100764997Y-87308267D01*
X100725207Y-87366111D01*
X100714036Y-87381879D01*
X100703966Y-87395841D01*
X100694938Y-87409184D01*
X100686897Y-87423093D01*
X100679786Y-87438756D01*
X100673547Y-87457358D01*
X100668125Y-87480086D01*
X100663462Y-87508127D01*
X100659501Y-87542667D01*
X100656185Y-87584892D01*
X100653459Y-87635989D01*
X100651264Y-87697144D01*
X100649545Y-87769544D01*
X100648244Y-87854375D01*
X100647305Y-87952822D01*
X100646670Y-88066074D01*
X100646284Y-88195316D01*
X100646088Y-88341734D01*
X100646027Y-88506516D01*
X100646043Y-88690847D01*
X100646080Y-88895913D01*
X100646089Y-89018533D01*
X100646065Y-89235482D01*
X100646031Y-89431042D01*
X100646043Y-89606399D01*
X100646158Y-89762741D01*
X100646430Y-89901257D01*
X100646918Y-90023134D01*
X100647676Y-90129560D01*
X100648762Y-90221722D01*
X100650231Y-90300809D01*
X100652140Y-90368008D01*
X100654544Y-90424507D01*
X100657501Y-90471493D01*
X100661066Y-90510155D01*
X100665295Y-90541680D01*
X100670246Y-90567255D01*
X100675973Y-90588070D01*
X100682533Y-90605311D01*
X100689983Y-90620165D01*
X100698379Y-90633822D01*
X100707776Y-90647469D01*
X100718232Y-90662293D01*
X100724323Y-90671183D01*
X100763096Y-90728800D01*
X100231532Y-90728800D01*
X100108283Y-90728765D01*
X100005787Y-90728615D01*
X99922220Y-90728278D01*
X99855756Y-90727686D01*
X99804571Y-90726767D01*
X99766841Y-90725451D01*
X99740740Y-90723669D01*
X99724444Y-90721351D01*
X99716128Y-90718426D01*
X99713968Y-90714824D01*
X99716139Y-90710475D01*
X99717335Y-90709045D01*
X99742485Y-90671973D01*
X99768383Y-90619172D01*
X99791992Y-90557170D01*
X99800261Y-90530757D01*
X99804878Y-90512816D01*
X99808779Y-90491755D01*
X99812048Y-90465489D01*
X99814766Y-90431932D01*
X99817015Y-90388999D01*
X99818877Y-90334604D01*
X99820436Y-90266662D01*
X99821772Y-90183088D01*
X99822969Y-90081795D01*
X99824108Y-89960700D01*
X99824485Y-89916000D01*
X99825502Y-89790849D01*
X99826260Y-89686482D01*
X99826703Y-89601107D01*
X99826770Y-89532933D01*
X99826405Y-89480165D01*
X99825548Y-89441014D01*
X99824141Y-89413685D01*
X99822125Y-89396386D01*
X99819443Y-89387326D01*
X99816036Y-89384712D01*
X99811844Y-89386751D01*
X99807371Y-89391067D01*
X99797016Y-89404002D01*
X99774958Y-89433076D01*
X99742757Y-89476159D01*
X99701974Y-89531118D01*
X99654170Y-89595823D01*
X99600905Y-89668142D01*
X99543740Y-89745944D01*
X99484237Y-89827098D01*
X99423955Y-89909472D01*
X99364455Y-89990936D01*
X99307298Y-90069357D01*
X99254045Y-90142604D01*
X99206257Y-90208547D01*
X99165493Y-90265054D01*
X99133316Y-90309993D01*
X99111285Y-90341234D01*
X99106717Y-90347866D01*
X99083796Y-90384769D01*
X99056988Y-90432759D01*
X99031589Y-90482297D01*
X99028368Y-90488977D01*
X99006690Y-90537172D01*
X98994104Y-90574734D01*
X98988374Y-90610560D01*
X98987256Y-90652600D01*
X98987890Y-90728800D01*
X97833451Y-90728800D01*
X97924615Y-90635069D01*
X97971412Y-90585175D01*
X98021699Y-90528695D01*
X98067744Y-90474426D01*
X98088169Y-90449073D01*
X98118607Y-90409528D01*
X98158662Y-90356316D01*
X98207161Y-90291067D01*
X98262935Y-90215411D01*
X98324811Y-90130977D01*
X98391619Y-90039394D01*
X98462187Y-89942292D01*
X98535345Y-89841301D01*
X98609921Y-89738050D01*
X98684744Y-89634168D01*
X98758643Y-89531285D01*
X98830446Y-89431031D01*
X98898984Y-89335036D01*
X98963084Y-89244927D01*
X99021575Y-89162336D01*
X99073286Y-89088892D01*
X99117047Y-89026224D01*
X99151685Y-88975961D01*
X99176030Y-88939734D01*
X99188911Y-88919171D01*
X99190669Y-88915068D01*
X99182710Y-88903742D01*
X99161915Y-88876562D01*
X99129647Y-88835229D01*
X99087270Y-88781444D01*
X99036147Y-88716906D01*
X98977641Y-88643318D01*
X98913114Y-88562378D01*
X98843931Y-88475788D01*
X98771453Y-88385248D01*
X98697046Y-88292460D01*
X98637317Y-88218102D01*
X97626311Y-88218102D01*
X97620402Y-88231059D01*
X97606072Y-88253308D01*
X97605025Y-88254791D01*
X97586238Y-88284944D01*
X97566591Y-88321775D01*
X97562692Y-88329911D01*
X97559156Y-88338340D01*
X97556030Y-88348459D01*
X97553286Y-88361660D01*
X97550892Y-88379338D01*
X97548819Y-88402884D01*
X97547035Y-88433693D01*
X97545512Y-88473157D01*
X97544219Y-88522669D01*
X97543126Y-88583623D01*
X97542203Y-88657411D01*
X97541419Y-88745428D01*
X97540745Y-88849065D01*
X97540150Y-88969716D01*
X97539605Y-89108774D01*
X97539079Y-89267632D01*
X97538545Y-89446489D01*
X97538006Y-89631607D01*
X97537572Y-89795545D01*
X97537309Y-89939703D01*
X97537284Y-90065479D01*
X97537565Y-90174271D01*
X97538219Y-90267477D01*
X97539314Y-90346497D01*
X97540918Y-90412728D01*
X97543097Y-90467570D01*
X97545919Y-90512421D01*
X97549451Y-90548678D01*
X97553761Y-90577741D01*
X97558917Y-90601009D01*
X97564985Y-90619879D01*
X97572033Y-90635751D01*
X97580129Y-90650022D01*
X97589340Y-90664091D01*
X97597840Y-90676558D01*
X97614976Y-90702852D01*
X97625122Y-90720437D01*
X97626311Y-90723657D01*
X97615404Y-90724734D01*
X97584211Y-90725735D01*
X97535023Y-90726635D01*
X97470133Y-90727410D01*
X97391830Y-90728037D01*
X97302407Y-90728491D01*
X97204156Y-90728749D01*
X97135245Y-90728800D01*
X97030252Y-90728580D01*
X96933410Y-90727948D01*
X96846907Y-90726949D01*
X96772932Y-90725627D01*
X96713674Y-90724026D01*
X96671320Y-90722191D01*
X96648060Y-90720165D01*
X96644178Y-90718893D01*
X96651876Y-90703991D01*
X96659874Y-90695960D01*
X96673046Y-90678834D01*
X96690285Y-90648583D01*
X96702207Y-90624022D01*
X96728845Y-90565111D01*
X96731920Y-89388245D01*
X96734995Y-88211378D01*
X97180653Y-88211378D01*
X97278470Y-88211542D01*
X97368864Y-88212011D01*
X97449430Y-88212747D01*
X97517762Y-88213716D01*
X97571456Y-88214880D01*
X97608105Y-88216203D01*
X97625304Y-88217649D01*
X97626311Y-88218102D01*
X98637317Y-88218102D01*
X98622070Y-88199122D01*
X98547890Y-88106937D01*
X98475869Y-88017604D01*
X98407369Y-87932824D01*
X98343755Y-87854298D01*
X98286388Y-87783726D01*
X98236633Y-87722809D01*
X98195852Y-87673247D01*
X98178688Y-87652578D01*
X98092396Y-87551916D01*
X98015797Y-87468659D01*
X97946983Y-87400838D01*
X97884048Y-87346489D01*
X97874667Y-87339122D01*
X97835156Y-87308517D01*
X98966916Y-87308267D01*
X98961627Y-87356244D01*
X98964930Y-87413588D01*
X98986461Y-87481863D01*
X99026435Y-87561612D01*
X99071743Y-87633895D01*
X99087961Y-87656540D01*
X99116014Y-87694096D01*
X99154230Y-87744421D01*
X99200937Y-87805373D01*
X99254461Y-87874811D01*
X99313131Y-87950594D01*
X99375275Y-88030580D01*
X99439221Y-88112628D01*
X99503295Y-88194596D01*
X99565827Y-88274343D01*
X99625143Y-88349727D01*
X99679571Y-88418607D01*
X99727439Y-88478842D01*
X99767075Y-88528289D01*
X99796806Y-88564808D01*
X99814961Y-88586258D01*
X99818020Y-88589556D01*
X99820879Y-88581549D01*
X99823093Y-88551255D01*
X99824657Y-88498956D01*
X99825567Y-88424931D01*
X99825820Y-88329463D01*
X99825413Y-88212834D01*
X99824504Y-88092845D01*
X99823182Y-87960733D01*
X99821657Y-87848994D01*
X99819681Y-87755425D01*
X99817006Y-87677819D01*
X99813382Y-87613974D01*
X99808561Y-87561683D01*
X99802294Y-87518744D01*
X99794332Y-87482951D01*
X99784427Y-87452100D01*
X99772331Y-87423986D01*
X99757793Y-87396405D01*
X99743111Y-87371366D01*
X99705114Y-87308267D01*
X100764997Y-87308267D01*
X101067834Y-87308267D01*
X101067801Y-87302017D01*
X101066995Y-87199944D01*
X101065970Y-87111033D01*
X101064700Y-87034341D01*
X101063160Y-86968927D01*
X101061324Y-86913849D01*
X101059167Y-86868165D01*
X101056663Y-86830934D01*
X101053787Y-86801213D01*
X101050513Y-86778062D01*
X101046815Y-86760539D01*
X101042669Y-86747701D01*
X101038047Y-86738608D01*
X101032926Y-86732318D01*
X101027278Y-86727888D01*
X101021079Y-86724378D01*
X101014304Y-86720845D01*
X101008308Y-86717276D01*
X101003075Y-86714700D01*
X100994899Y-86712372D01*
X100982686Y-86710278D01*
X100965341Y-86708407D01*
X100941769Y-86706747D01*
X100910877Y-86705284D01*
X100871568Y-86704008D01*
X100822750Y-86702904D01*
X100763327Y-86701961D01*
X100692204Y-86701167D01*
X100608288Y-86700509D01*
X100510483Y-86699975D01*
X100397694Y-86699553D01*
X100268829Y-86699229D01*
X100122791Y-86698992D01*
X99958486Y-86698830D01*
X99774820Y-86698730D01*
X99570697Y-86698680D01*
X99359553Y-86698667D01*
X97739200Y-86698667D01*
X97739200Y-86795454D01*
G37*
X97739200Y-86795454D02*
X97728335Y-86909393D01*
X97696718Y-87017016D01*
X97645815Y-87116015D01*
X97577093Y-87204084D01*
X97492019Y-87278916D01*
X97395032Y-87336784D01*
X97288764Y-87376405D01*
X97181750Y-87394973D01*
X97076100Y-87393834D01*
X96973925Y-87374330D01*
X96877334Y-87337806D01*
X96788438Y-87285605D01*
X96709346Y-87219073D01*
X96642169Y-87139552D01*
X96589017Y-87048387D01*
X96551999Y-86946923D01*
X96533227Y-86836502D01*
X96531289Y-86786606D01*
X96531289Y-86698667D01*
X96479360Y-86698667D01*
X96443053Y-86701511D01*
X96416155Y-86713311D01*
X96389049Y-86737049D01*
X96350667Y-86775431D01*
X96350667Y-88967002D01*
X96350676Y-89229139D01*
X96350708Y-89469641D01*
X96350772Y-89689448D01*
X96350876Y-89889501D01*
X96351027Y-90070744D01*
X96351234Y-90234116D01*
X96351506Y-90380560D01*
X96351850Y-90511017D01*
X96352274Y-90626429D01*
X96352787Y-90727738D01*
X96353397Y-90815884D01*
X96354112Y-90891810D01*
X96354940Y-90956457D01*
X96355889Y-91010767D01*
X96356967Y-91055680D01*
X96358183Y-91092140D01*
X96359545Y-91121087D01*
X96361061Y-91143463D01*
X96362738Y-91160209D01*
X96364586Y-91172268D01*
X96366613Y-91180580D01*
X96368825Y-91186087D01*
X96369908Y-91187937D01*
X96374071Y-91194949D01*
X96377605Y-91201396D01*
X96381435Y-91207300D01*
X96386482Y-91212686D01*
X96393671Y-91217578D01*
X96403923Y-91221998D01*
X96418164Y-91225972D01*
X96437314Y-91229521D01*
X96462299Y-91232670D01*
X96494040Y-91235442D01*
X96533462Y-91237861D01*
X96581486Y-91239951D01*
X96639037Y-91241735D01*
X96707037Y-91243237D01*
X96786410Y-91244480D01*
X96878079Y-91245489D01*
X96982966Y-91246285D01*
X97101996Y-91246894D01*
X97236090Y-91247339D01*
X97386173Y-91247643D01*
X97553167Y-91247830D01*
X97737996Y-91247924D01*
X97941583Y-91247948D01*
X98164850Y-91247925D01*
X98408722Y-91247880D01*
X98674121Y-91247837D01*
X98712504Y-91247832D01*
X98979482Y-91247789D01*
X99224802Y-91247718D01*
X99449383Y-91247613D01*
X99654145Y-91247466D01*
X99840006Y-91247269D01*
X100007888Y-91247016D01*
X100158708Y-91246700D01*
X100293387Y-91246313D01*
X100412844Y-91245847D01*
X100517999Y-91245297D01*
X100609771Y-91244653D01*
X100689079Y-91243911D01*
X100756843Y-91243061D01*
X100813982Y-91242097D01*
X100861417Y-91241011D01*
X100900066Y-91239797D01*
X100930849Y-91238447D01*
X100954685Y-91236955D01*
X100972494Y-91235311D01*
X100985195Y-91233511D01*
X100993708Y-91231545D01*
X100998066Y-91229877D01*
X101006528Y-91226306D01*
X101014297Y-91223670D01*
X101021402Y-91221034D01*
X101027873Y-91217462D01*
X101033739Y-91212021D01*
X101039029Y-91203775D01*
X101043774Y-91191790D01*
X101048002Y-91175131D01*
X101051743Y-91152863D01*
X101055027Y-91124052D01*
X101057883Y-91087763D01*
X101060340Y-91043061D01*
X101062429Y-90989011D01*
X101064178Y-90924679D01*
X101065617Y-90849130D01*
X101066776Y-90761430D01*
X101067683Y-90660643D01*
X101068369Y-90545834D01*
X101068863Y-90416070D01*
X101069195Y-90270415D01*
X101069393Y-90107935D01*
X101069487Y-89927695D01*
X101069508Y-89728760D01*
X101069485Y-89510196D01*
X101069446Y-89271068D01*
X101069422Y-89010440D01*
X101069422Y-88968289D01*
X101069436Y-88705392D01*
X101069461Y-88464132D01*
X101069471Y-88243565D01*
X101069442Y-88042752D01*
X101069348Y-87860749D01*
X101069162Y-87696616D01*
X101068859Y-87549411D01*
X101068414Y-87418192D01*
X101067834Y-87308267D01*
X100764997Y-87308267D01*
X100725207Y-87366111D01*
X100714036Y-87381879D01*
X100703966Y-87395841D01*
X100694938Y-87409184D01*
X100686897Y-87423093D01*
X100679786Y-87438756D01*
X100673547Y-87457358D01*
X100668125Y-87480086D01*
X100663462Y-87508127D01*
X100659501Y-87542667D01*
X100656185Y-87584892D01*
X100653459Y-87635989D01*
X100651264Y-87697144D01*
X100649545Y-87769544D01*
X100648244Y-87854375D01*
X100647305Y-87952822D01*
X100646670Y-88066074D01*
X100646284Y-88195316D01*
X100646088Y-88341734D01*
X100646027Y-88506516D01*
X100646043Y-88690847D01*
X100646080Y-88895913D01*
X100646089Y-89018533D01*
X100646065Y-89235482D01*
X100646031Y-89431042D01*
X100646043Y-89606399D01*
X100646158Y-89762741D01*
X100646430Y-89901257D01*
X100646918Y-90023134D01*
X100647676Y-90129560D01*
X100648762Y-90221722D01*
X100650231Y-90300809D01*
X100652140Y-90368008D01*
X100654544Y-90424507D01*
X100657501Y-90471493D01*
X100661066Y-90510155D01*
X100665295Y-90541680D01*
X100670246Y-90567255D01*
X100675973Y-90588070D01*
X100682533Y-90605311D01*
X100689983Y-90620165D01*
X100698379Y-90633822D01*
X100707776Y-90647469D01*
X100718232Y-90662293D01*
X100724323Y-90671183D01*
X100763096Y-90728800D01*
X100231532Y-90728800D01*
X100108283Y-90728765D01*
X100005787Y-90728615D01*
X99922220Y-90728278D01*
X99855756Y-90727686D01*
X99804571Y-90726767D01*
X99766841Y-90725451D01*
X99740740Y-90723669D01*
X99724444Y-90721351D01*
X99716128Y-90718426D01*
X99713968Y-90714824D01*
X99716139Y-90710475D01*
X99717335Y-90709045D01*
X99742485Y-90671973D01*
X99768383Y-90619172D01*
X99791992Y-90557170D01*
X99800261Y-90530757D01*
X99804878Y-90512816D01*
X99808779Y-90491755D01*
X99812048Y-90465489D01*
X99814766Y-90431932D01*
X99817015Y-90388999D01*
X99818877Y-90334604D01*
X99820436Y-90266662D01*
X99821772Y-90183088D01*
X99822969Y-90081795D01*
X99824108Y-89960700D01*
X99824485Y-89916000D01*
X99825502Y-89790849D01*
X99826260Y-89686482D01*
X99826703Y-89601107D01*
X99826770Y-89532933D01*
X99826405Y-89480165D01*
X99825548Y-89441014D01*
X99824141Y-89413685D01*
X99822125Y-89396386D01*
X99819443Y-89387326D01*
X99816036Y-89384712D01*
X99811844Y-89386751D01*
X99807371Y-89391067D01*
X99797016Y-89404002D01*
X99774958Y-89433076D01*
X99742757Y-89476159D01*
X99701974Y-89531118D01*
X99654170Y-89595823D01*
X99600905Y-89668142D01*
X99543740Y-89745944D01*
X99484237Y-89827098D01*
X99423955Y-89909472D01*
X99364455Y-89990936D01*
X99307298Y-90069357D01*
X99254045Y-90142604D01*
X99206257Y-90208547D01*
X99165493Y-90265054D01*
X99133316Y-90309993D01*
X99111285Y-90341234D01*
X99106717Y-90347866D01*
X99083796Y-90384769D01*
X99056988Y-90432759D01*
X99031589Y-90482297D01*
X99028368Y-90488977D01*
X99006690Y-90537172D01*
X98994104Y-90574734D01*
X98988374Y-90610560D01*
X98987256Y-90652600D01*
X98987890Y-90728800D01*
X97833451Y-90728800D01*
X97924615Y-90635069D01*
X97971412Y-90585175D01*
X98021699Y-90528695D01*
X98067744Y-90474426D01*
X98088169Y-90449073D01*
X98118607Y-90409528D01*
X98158662Y-90356316D01*
X98207161Y-90291067D01*
X98262935Y-90215411D01*
X98324811Y-90130977D01*
X98391619Y-90039394D01*
X98462187Y-89942292D01*
X98535345Y-89841301D01*
X98609921Y-89738050D01*
X98684744Y-89634168D01*
X98758643Y-89531285D01*
X98830446Y-89431031D01*
X98898984Y-89335036D01*
X98963084Y-89244927D01*
X99021575Y-89162336D01*
X99073286Y-89088892D01*
X99117047Y-89026224D01*
X99151685Y-88975961D01*
X99176030Y-88939734D01*
X99188911Y-88919171D01*
X99190669Y-88915068D01*
X99182710Y-88903742D01*
X99161915Y-88876562D01*
X99129647Y-88835229D01*
X99087270Y-88781444D01*
X99036147Y-88716906D01*
X98977641Y-88643318D01*
X98913114Y-88562378D01*
X98843931Y-88475788D01*
X98771453Y-88385248D01*
X98697046Y-88292460D01*
X98637317Y-88218102D01*
X97626311Y-88218102D01*
X97620402Y-88231059D01*
X97606072Y-88253308D01*
X97605025Y-88254791D01*
X97586238Y-88284944D01*
X97566591Y-88321775D01*
X97562692Y-88329911D01*
X97559156Y-88338340D01*
X97556030Y-88348459D01*
X97553286Y-88361660D01*
X97550892Y-88379338D01*
X97548819Y-88402884D01*
X97547035Y-88433693D01*
X97545512Y-88473157D01*
X97544219Y-88522669D01*
X97543126Y-88583623D01*
X97542203Y-88657411D01*
X97541419Y-88745428D01*
X97540745Y-88849065D01*
X97540150Y-88969716D01*
X97539605Y-89108774D01*
X97539079Y-89267632D01*
X97538545Y-89446489D01*
X97538006Y-89631607D01*
X97537572Y-89795545D01*
X97537309Y-89939703D01*
X97537284Y-90065479D01*
X97537565Y-90174271D01*
X97538219Y-90267477D01*
X97539314Y-90346497D01*
X97540918Y-90412728D01*
X97543097Y-90467570D01*
X97545919Y-90512421D01*
X97549451Y-90548678D01*
X97553761Y-90577741D01*
X97558917Y-90601009D01*
X97564985Y-90619879D01*
X97572033Y-90635751D01*
X97580129Y-90650022D01*
X97589340Y-90664091D01*
X97597840Y-90676558D01*
X97614976Y-90702852D01*
X97625122Y-90720437D01*
X97626311Y-90723657D01*
X97615404Y-90724734D01*
X97584211Y-90725735D01*
X97535023Y-90726635D01*
X97470133Y-90727410D01*
X97391830Y-90728037D01*
X97302407Y-90728491D01*
X97204156Y-90728749D01*
X97135245Y-90728800D01*
X97030252Y-90728580D01*
X96933410Y-90727948D01*
X96846907Y-90726949D01*
X96772932Y-90725627D01*
X96713674Y-90724026D01*
X96671320Y-90722191D01*
X96648060Y-90720165D01*
X96644178Y-90718893D01*
X96651876Y-90703991D01*
X96659874Y-90695960D01*
X96673046Y-90678834D01*
X96690285Y-90648583D01*
X96702207Y-90624022D01*
X96728845Y-90565111D01*
X96731920Y-89388245D01*
X96734995Y-88211378D01*
X97180653Y-88211378D01*
X97278470Y-88211542D01*
X97368864Y-88212011D01*
X97449430Y-88212747D01*
X97517762Y-88213716D01*
X97571456Y-88214880D01*
X97608105Y-88216203D01*
X97625304Y-88217649D01*
X97626311Y-88218102D01*
X98637317Y-88218102D01*
X98622070Y-88199122D01*
X98547890Y-88106937D01*
X98475869Y-88017604D01*
X98407369Y-87932824D01*
X98343755Y-87854298D01*
X98286388Y-87783726D01*
X98236633Y-87722809D01*
X98195852Y-87673247D01*
X98178688Y-87652578D01*
X98092396Y-87551916D01*
X98015797Y-87468659D01*
X97946983Y-87400838D01*
X97884048Y-87346489D01*
X97874667Y-87339122D01*
X97835156Y-87308517D01*
X98966916Y-87308267D01*
X98961627Y-87356244D01*
X98964930Y-87413588D01*
X98986461Y-87481863D01*
X99026435Y-87561612D01*
X99071743Y-87633895D01*
X99087961Y-87656540D01*
X99116014Y-87694096D01*
X99154230Y-87744421D01*
X99200937Y-87805373D01*
X99254461Y-87874811D01*
X99313131Y-87950594D01*
X99375275Y-88030580D01*
X99439221Y-88112628D01*
X99503295Y-88194596D01*
X99565827Y-88274343D01*
X99625143Y-88349727D01*
X99679571Y-88418607D01*
X99727439Y-88478842D01*
X99767075Y-88528289D01*
X99796806Y-88564808D01*
X99814961Y-88586258D01*
X99818020Y-88589556D01*
X99820879Y-88581549D01*
X99823093Y-88551255D01*
X99824657Y-88498956D01*
X99825567Y-88424931D01*
X99825820Y-88329463D01*
X99825413Y-88212834D01*
X99824504Y-88092845D01*
X99823182Y-87960733D01*
X99821657Y-87848994D01*
X99819681Y-87755425D01*
X99817006Y-87677819D01*
X99813382Y-87613974D01*
X99808561Y-87561683D01*
X99802294Y-87518744D01*
X99794332Y-87482951D01*
X99784427Y-87452100D01*
X99772331Y-87423986D01*
X99757793Y-87396405D01*
X99743111Y-87371366D01*
X99705114Y-87308267D01*
X100764997Y-87308267D01*
X101067834Y-87308267D01*
X101067801Y-87302017D01*
X101066995Y-87199944D01*
X101065970Y-87111033D01*
X101064700Y-87034341D01*
X101063160Y-86968927D01*
X101061324Y-86913849D01*
X101059167Y-86868165D01*
X101056663Y-86830934D01*
X101053787Y-86801213D01*
X101050513Y-86778062D01*
X101046815Y-86760539D01*
X101042669Y-86747701D01*
X101038047Y-86738608D01*
X101032926Y-86732318D01*
X101027278Y-86727888D01*
X101021079Y-86724378D01*
X101014304Y-86720845D01*
X101008308Y-86717276D01*
X101003075Y-86714700D01*
X100994899Y-86712372D01*
X100982686Y-86710278D01*
X100965341Y-86708407D01*
X100941769Y-86706747D01*
X100910877Y-86705284D01*
X100871568Y-86704008D01*
X100822750Y-86702904D01*
X100763327Y-86701961D01*
X100692204Y-86701167D01*
X100608288Y-86700509D01*
X100510483Y-86699975D01*
X100397694Y-86699553D01*
X100268829Y-86699229D01*
X100122791Y-86698992D01*
X99958486Y-86698830D01*
X99774820Y-86698730D01*
X99570697Y-86698680D01*
X99359553Y-86698667D01*
X97739200Y-86698667D01*
X97739200Y-86795454D01*
%TD*%
M02*
